<?xml version="1.0" encoding="UTF-8" standalone="no"?>
<svg
   xmlns:dc="http://purl.org/dc/elements/1.1/"
   xmlns:cc="http://creativecommons.org/ns#"
   xmlns:rdf="http://www.w3.org/1999/02/22-rdf-syntax-ns#"
   xmlns:svg="http://www.w3.org/2000/svg"
   xmlns="http://www.w3.org/2000/svg"
   xmlns:sodipodi="http://sodipodi.sourceforge.net/DTD/sodipodi-0.dtd"
   xmlns:inkscape="http://www.inkscape.org/namespaces/inkscape"
   width="610px"
   height="460px"
   viewBox="0 0 610 460"
   style="stroke:none"
   id="svg3355"
   version="1.1"
   inkscape:version="0.48.2 r9819"
   sodipodi:docname="hz.svg">
  <metadata
     id="metadata3723">
    <rdf:RDF>
      <cc:Work
         rdf:about="">
        <dc:format>image/svg+xml</dc:format>
        <dc:type
           rdf:resource="http://purl.org/dc/dcmitype/StillImage" />
      </cc:Work>
    </rdf:RDF>
  </metadata>
  <sodipodi:namedview
     pagecolor="#ffffff"
     bordercolor="#666666"
     borderopacity="1"
     objecttolerance="10"
     gridtolerance="10"
     guidetolerance="10"
     inkscape:pageopacity="0"
     inkscape:pageshadow="2"
     inkscape:window-width="1280"
     inkscape:window-height="744"
     id="namedview3721"
     showgrid="false"
     inkscape:zoom="1.026087"
     inkscape:cx="305"
     inkscape:cy="230"
     inkscape:window-x="-4"
     inkscape:window-y="-4"
     inkscape:window-maximized="1"
     inkscape:current-layer="svg3355" />
  <title
     id="title3357">Графическое окно 2</title>
  <desc
     id="desc3359">
Creator: GL2PS 1.3.2, (C) 1999-2006 Christophe Geuzaine (geuz@geuz.org)
For: Scilab
CreationDate: Sat Mar 31 12:01:13 2012
</desc>
  <defs
     id="defs3361" />
  <polygon
     points="610,460 0,460 0,0 610,0 "
     id="polygon3363"
     style="fill:#ffffff;stroke:#000000"
     transform="matrix(0.84357346,0,0,0.98536141,37.964333,6.7778915)" />
  <polygon
     style="fill:#ffffff"
     id="polygon3367"
     points="76.25,19.1875 76.25,134.188 76.25,19.1875 " />
  <polygon
     style="fill:#ffffff"
     id="polygon3369"
     points="76.25,134.188 76.25,134.188 76.25,19.1875 " />
  <polygon
     style="fill:#ffffff"
     id="polygon3371"
     points="533.75,134.188 76.25,134.188 533.75,134.188 " />
  <polygon
     style="fill:#ffffff"
     id="polygon3373"
     points="76.25,134.188 76.25,134.188 533.75,134.188 " />
  <polyline
     style="fill:none;stroke:#000000;stroke-width:0.5"
     id="polyline3379"
     points="76.25,134.188 76.25,19.1875 76.25,19.1875 533.75,19.1875 533.75,134.188 533.75,134.188 76.25,134.188" />
  <polyline
     style="fill:none;stroke:#000000;stroke-width:0.5"
     id="polyline3381"
     points="533.75,19.1875 76.25,19.1875" />
  <polyline
     style="fill:none;stroke:#000000;stroke-width:0.5"
     id="polyline3383"
     points="533.75,19.1875 533.75,134.188" />
  <polyline
     style="fill:none;stroke:#000000;stroke-width:0.5"
     id="polyline3385"
     points="533.75,19.1875 533.75,19.1875" />
  <polyline
     style="fill:none;stroke:#0000ff;stroke-width:0.5"
     id="polyline3387"
     points="76.25,43.3125 78,43.3125 79.8125,43.25 81.625,43.1875 83.375,43.0625 85.1875,42.875 87,42.6875 88.75,42.5 90.5625,42.25 92.375,42 94.1875,41.6875 95.9375,41.375 97.75,41 99.5625,40.625 101.313,40.25 103.125,39.8125 104.938,39.4375 106.75,39 108.5,38.5625 110.313,38.125 112.125,37.6875 113.875,37.25 115.688,36.8125 117.5,36.375 119.25,36 121.063,35.5625 122.875,35.1875 124.688,34.875 126.438,34.5625 128.25,34.25 130.063,34 131.813,33.75 133.625,33.625 135.438,33.5 137.25,33.4375 139,33.4375 140.813,33.4375 142.625,33.5625 144.375,33.75 146.188,34 148,34.3125 149.75,34.6875 151.563,35.1875 153.375,35.75 155.188,36.375 156.938,37.125 158.75,37.9375 160.563,38.8125 162.313,39.8125 164.125,40.875 165.938,42.0625 167.75,43.3125 169.5,44.6875 171.313,46.125 173.125,47.625 174.875,49.25 176.688,50.9375 178.5,52.75 180.25,54.625 182.063,56.5625 183.875,58.5625 185.688,60.625 187.438,62.8125 189.25,65 191.063,67.25 192.813,69.625 194.625,71.9375 196.438,74.375 198.25,76.8125 200,79.3125 201.813,81.8125 203.625,84.3125 205.375,86.8125 207.188,89.375 209,91.875 210.75,94.375 212.563,96.875 214.375,99.375 216.188,101.813 217.938,104.188 219.75,106.563 221.563,108.875 223.313,111.125 225.125,113.313 226.938,115.438 228.75,117.5 230.5,119.5 232.313,121.375 234.125,123.188 235.875,124.938 237.688,126.563 239.5,128.063 241.25,129.5 243.063,130.875 244.875,132.125 246.688,133.25 248.438,134.125 250.25,133.188 252.063,132.375 253.813,131.625 255.625,131 257.438,130.5 259.25,130.063 261,129.75 262.813,129.5 264.625,129.313 266.375,129.25 268.188,129.25 270,129.313 271.75,129.438 273.563,129.688 275.375,129.938 277.188,130.25 278.938,130.625 280.75,131 282.563,131.438 284.313,131.875 286.125,132.375 287.938,132.875 289.75,133.375 291.5,133.938 293.313,133.938 295.125,133.438 296.875,132.938 298.688,132.438 300.5,132 302.25,131.563 304.063,131.125 305.875,130.75 307.688,130.438 309.438,130.125 311.25,129.875 313.063,129.625 314.813,129.5 316.625,129.375 318.438,129.25 320.25,129.25 322,129.25 323.813,129.313 325.625,129.438 327.375,129.563 329.188,129.75 331,130 332.75,130.25 334.563,130.563 336.375,130.938 338.188,131.313 339.938,131.688 341.75,132.125 343.563,132.5 345.313,133 347.125,133.438 348.938,133.875 350.75,134 352.5,133.563 354.313,133.125 356.125,132.625 357.875,132.188 359.688,131.813 361.5,131.375 363.25,131 365.063,130.688 366.875,130.375 368.688,130.125 370.438,129.875 372.25,129.625 374.063,129.5 375.813,129.375 377.625,129.25 379.438,129.25 381.25,129.25 383,129.313 384.813,129.375 386.625,129.5 388.375,129.688 390.188,129.875 392,130.125 393.75,130.438 395.563,130.75 397.375,131.063 399.188,131.438 400.938,131.813 402.75,132.25 404.563,132.688 406.313,133.125 408.125,133.563 409.938,134 411.75,133.938 413.5,133.438 415.313,133 417.125,132.563 418.875,132.188 420.688,131.75 422.5,131.375 424.25,131 426.063,130.688 427.875,130.375 429.688,130.063 431.438,129.875 433.25,129.625 435.063,129.5 436.813,129.375 438.625,129.313 440.438,129.25 442.25,129.25 444,129.313 445.813,129.375 447.625,129.5 449.375,129.625 451.188,129.875 453,130.063 454.75,130.375 456.563,130.688 458.375,131 460.188,131.375 461.938,131.75 463.75,132.125 465.563,132.563 467.313,133 469.125,133.438 470.938,133.938 472.75,134 474.5,133.563 476.313,133.125 478.125,132.688 479.875,132.25 481.688,131.875 483.5,131.438 485.25,131.125 487.063,130.75 488.875,130.438 490.688,130.188 492.438,129.938 494.25,129.688 496.063,129.563 497.813,129.375 499.625,129.313 501.438,129.25 503.25,129.25 505,129.25 506.813,129.313 508.625,129.438 510.375,129.563 512.188,129.813 514,130 515.75,130.25 517.563,130.563 519.375,130.875 521.188,131.25 522.938,131.625 524.75,132 526.563,132.438 528.313,132.875 530.125,133.313 531.938,133.75 533.75,134.188" />
  <polyline
     style="fill:none;stroke:#000000;stroke-width:0.5"
     id="polyline3389"
     points="76.25,134.188 76.25,19.1875" />
  <polyline
     style="fill:none;stroke:#000000;stroke-width:0.5"
     id="polyline3391"
     points="76.25,134.188 69.375,134.188" />
  <polyline
     style="fill:none;stroke:#000000;stroke-width:0.5"
     id="polyline3393"
     points="76.25,115 69.375,115" />
  <polyline
     style="fill:none;stroke:#000000;stroke-width:0.5"
     id="polyline3395"
     points="76.25,95.875 69.375,95.875" />
  <polyline
     style="fill:none;stroke:#000000;stroke-width:0.5"
     id="polyline3397"
     points="76.25,76.6875 69.375,76.6875" />
  <polyline
     style="fill:none;stroke:#000000;stroke-width:0.5"
     id="polyline3399"
     points="76.25,57.5 69.375,57.5" />
  <polyline
     style="fill:none;stroke:#000000;stroke-width:0.5"
     id="polyline3401"
     points="76.25,38.375 69.375,38.375" />
  <polyline
     style="fill:none;stroke:#000000;stroke-width:0.5"
     id="polyline3403"
     points="76.25,19.1875 69.375,19.1875" />
  <polyline
     style="fill:none;stroke:#000000;stroke-width:0.5"
     id="polyline3405"
     points="76.25,124.625 72.125,124.625" />
  <polyline
     style="fill:none;stroke:#000000;stroke-width:0.5"
     id="polyline3407"
     points="76.25,105.438 72.125,105.438" />
  <polyline
     style="fill:none;stroke:#000000;stroke-width:0.5"
     id="polyline3409"
     points="76.25,86.25 72.125,86.25" />
  <polyline
     style="fill:none;stroke:#000000;stroke-width:0.5"
     id="polyline3411"
     points="76.25,67.125 72.125,67.125" />
  <polyline
     style="fill:none;stroke:#000000;stroke-width:0.5"
     id="polyline3413"
     points="76.25,47.9375 72.125,47.9375" />
  <polyline
     style="fill:none;stroke:#000000;stroke-width:0.5"
     id="polyline3415"
     points="76.25,28.75 72.125,28.75" />
  <text
     id="text3417"
     font-weight="normal"
     font-style="normal"
     font-size="10"
     y="139"
     x="52"
     style="font-size:10px;font-style:normal;font-weight:normal;fill:#000000;stroke:none;font-family:SansSerif">0.0</text>
  <text
     id="text3419"
     font-weight="normal"
     font-style="normal"
     font-size="10"
     y="120"
     x="52"
     style="font-size:10px;font-style:normal;font-weight:normal;fill:#000000;stroke:none;font-family:SansSerif">0.2</text>
  <text
     id="text3421"
     font-weight="normal"
     font-style="normal"
     font-size="10"
     y="101"
     x="52"
     style="font-size:10px;font-style:normal;font-weight:normal;fill:#000000;stroke:none;font-family:SansSerif">0.4</text>
  <text
     id="text3423"
     font-weight="normal"
     font-style="normal"
     font-size="10"
     y="82"
     x="52"
     style="font-size:10px;font-style:normal;font-weight:normal;fill:#000000;stroke:none;font-family:SansSerif">0.6</text>
  <text
     id="text3425"
     font-weight="normal"
     font-style="normal"
     font-size="10"
     y="63"
     x="52"
     style="font-size:10px;font-style:normal;font-weight:normal;fill:#000000;stroke:none;font-family:SansSerif">0.8</text>
  <text
     id="text3427"
     font-weight="normal"
     font-style="normal"
     font-size="10"
     y="43"
     x="53"
     style="font-size:10px;font-style:normal;font-weight:normal;fill:#000000;stroke:none;font-family:SansSerif">1.0</text>
  <text
     id="text3429"
     font-weight="normal"
     font-style="normal"
     font-size="10"
     y="24"
     x="53"
     style="font-size:10px;font-style:normal;font-weight:normal;fill:#000000;stroke:none;font-family:SansSerif">1.2</text>
  <polyline
     style="fill:none;stroke:#000000;stroke-width:0.5"
     id="polyline3431"
     points="76.25,134.188 533.75,134.188" />
  <polyline
     style="fill:none;stroke:#000000;stroke-width:0.5"
     id="polyline3433"
     points="76.25,134.188 76.25,137.188" />
  <polyline
     style="fill:none;stroke:#000000;stroke-width:0.5"
     id="polyline3435"
     points="122,134.188 122,137.188" />
  <polyline
     style="fill:none;stroke:#000000;stroke-width:0.5"
     id="polyline3437"
     points="167.75,134.188 167.75,137.188" />
  <polyline
     style="fill:none;stroke:#000000;stroke-width:0.5"
     id="polyline3439"
     points="213.5,134.188 213.5,137.188" />
  <polyline
     style="fill:none;stroke:#000000;stroke-width:0.5"
     id="polyline3441"
     points="259.25,134.188 259.25,137.188" />
  <polyline
     style="fill:none;stroke:#000000;stroke-width:0.5"
     id="polyline3443"
     points="305,134.188 305,137.188" />
  <polyline
     style="fill:none;stroke:#000000;stroke-width:0.5"
     id="polyline3445"
     points="350.75,134.188 350.75,137.188" />
  <polyline
     style="fill:none;stroke:#000000;stroke-width:0.5"
     id="polyline3447"
     points="396.5,134.188 396.5,137.188" />
  <polyline
     style="fill:none;stroke:#000000;stroke-width:0.5"
     id="polyline3449"
     points="442.25,134.188 442.25,137.188" />
  <polyline
     style="fill:none;stroke:#000000;stroke-width:0.5"
     id="polyline3451"
     points="488,134.188 488,137.188" />
  <polyline
     style="fill:none;stroke:#000000;stroke-width:0.5"
     id="polyline3453"
     points="533.75,134.188 533.75,137.188" />
  <text
     id="text3455"
     font-weight="normal"
     font-style="normal"
     font-size="10"
     y="148"
     x="65"
     style="font-size:10px;font-style:normal;font-weight:normal;fill:#000000;stroke:none;font-family:SansSerif">0.00</text>
  <text
     id="text3457"
     font-weight="normal"
     font-style="normal"
     font-size="10"
     y="148"
     x="111"
     style="font-size:10px;font-style:normal;font-weight:normal;fill:#000000;stroke:none;font-family:SansSerif">0.05</text>
  <text
     id="text3459"
     font-weight="normal"
     font-style="normal"
     font-size="10"
     y="148"
     x="157"
     style="font-size:10px;font-style:normal;font-weight:normal;fill:#000000;stroke:none;font-family:SansSerif">0.10</text>
  <text
     id="text3461"
     font-weight="normal"
     font-style="normal"
     font-size="10"
     y="148"
     x="203"
     style="font-size:10px;font-style:normal;font-weight:normal;fill:#000000;stroke:none;font-family:SansSerif">0.15</text>
  <text
     id="text3463"
     font-weight="normal"
     font-style="normal"
     font-size="10"
     y="148"
     x="248"
     style="font-size:10px;font-style:normal;font-weight:normal;fill:#000000;stroke:none;font-family:SansSerif">0.20</text>
  <text
     id="text3465"
     font-weight="normal"
     font-style="normal"
     font-size="10"
     y="148"
     x="294"
     style="font-size:10px;font-style:normal;font-weight:normal;fill:#000000;stroke:none;font-family:SansSerif">0.25</text>
  <text
     id="text3467"
     font-weight="normal"
     font-style="normal"
     font-size="10"
     y="148"
     x="340"
     style="font-size:10px;font-style:normal;font-weight:normal;fill:#000000;stroke:none;font-family:SansSerif">0.30</text>
  <text
     id="text3469"
     font-weight="normal"
     font-style="normal"
     font-size="10"
     y="148"
     x="386"
     style="font-size:10px;font-style:normal;font-weight:normal;fill:#000000;stroke:none;font-family:SansSerif">0.35</text>
  <text
     id="text3471"
     font-weight="normal"
     font-style="normal"
     font-size="10"
     y="148"
     x="431"
     style="font-size:10px;font-style:normal;font-weight:normal;fill:#000000;stroke:none;font-family:SansSerif">0.40</text>
  <text
     id="text3473"
     font-weight="normal"
     font-style="normal"
     font-size="10"
     y="148"
     x="477"
     style="font-size:10px;font-style:normal;font-weight:normal;fill:#000000;stroke:none;font-family:SansSerif">0.45</text>
  <text
     id="text3475"
     font-weight="normal"
     font-style="normal"
     font-size="10"
     y="148"
     x="523"
     style="font-size:10px;font-style:normal;font-weight:normal;fill:#000000;stroke:none;font-family:SansSerif">0.50</text>
  <polygon
     style="fill:#ffffff"
     id="polygon3477"
     points="76.25,172.5 76.25,287.5 76.25,172.5 " />
  <polygon
     style="fill:#ffffff"
     id="polygon3479"
     points="76.25,287.5 76.25,287.5 76.25,172.5 " />
  <polygon
     style="fill:#ffffff"
     id="polygon3481"
     points="533.75,287.5 76.25,287.5 533.75,287.5 " />
  <polygon
     style="fill:#ffffff"
     id="polygon3483"
     points="76.25,287.5 76.25,287.5 533.75,287.5 " />
  <polyline
     style="fill:none;stroke:#000000;stroke-width:0.5"
     id="polyline3489"
     points="76.25,287.5 76.25,172.5 76.25,172.5 533.75,172.5 533.75,287.5 533.75,287.5 76.25,287.5" />
  <polyline
     style="fill:none;stroke:#000000;stroke-width:0.5"
     id="polyline3491"
     points="533.75,172.5 76.25,172.5" />
  <polyline
     style="fill:none;stroke:#000000;stroke-width:0.5"
     id="polyline3493"
     points="533.75,172.5 533.75,287.5" />
  <polyline
     style="fill:none;stroke:#000000;stroke-width:0.5"
     id="polyline3495"
     points="533.75,172.5 533.75,172.5" />
  <polyline
     style="fill:none;stroke:#0000ff;stroke-width:0.5"
     id="polyline3497"
     points="76.25,284.688 78,284.625 79.8125,284.438 81.625,284.125 83.375,283.688 85.1875,283.125 87,282.5 88.75,281.75 90.5625,280.875 92.375,279.938 94.1875,278.938 95.9375,277.875 97.75,276.75 99.5625,275.563 101.313,274.375 103.125,273.125 104.938,271.938 106.75,270.688 108.5,269.563 110.313,268.375 112.125,267.313 113.875,266.25 115.688,265.313 117.5,264.438 119.25,263.688 121.063,263.063 122.875,262.5 124.688,262.063 126.438,261.813 128.25,261.625 130.063,261.625 131.813,261.75 133.625,262 135.438,262.438 137.25,262.938 139,263.625 140.813,264.438 142.625,265.375 144.375,266.438 146.188,267.625 148,268.875 149.75,270.188 151.563,271.625 153.375,273.063 155.188,274.563 156.938,276.125 158.75,277.688 160.563,279.188 162.313,280.688 164.125,282.188 165.938,283.625 167.75,284.938 169.5,286.188 171.313,287.313 173.125,286.75 174.875,285.938 176.688,285.25 178.5,284.688 180.25,284.375 182.063,284.25 183.875,284.375 185.688,284.688 187.438,285.25 189.25,286 191.063,287.063 192.813,286.75 194.625,285.25 196.438,283.5 198.25,281.438 200,279.188 201.813,276.75 203.625,274 205.375,271.125 207.188,268 209,264.625 210.75,261.125 212.563,257.5 214.375,253.688 216.188,249.75 217.938,245.75 219.75,241.625 221.563,237.438 223.313,233.188 225.125,229 226.938,224.75 228.75,220.563 230.5,216.438 232.313,212.375 234.125,208.438 235.875,204.625 237.688,200.938 239.5,197.438 241.25,194.125 243.063,191 244.875,188.125 246.688,185.5 248.438,183.125 250.25,181.063 252.063,179.25 253.813,177.75 255.625,176.563 257.438,175.688 259.25,175.188 261,174.938 262.813,175.063 264.625,175.438 266.375,176.188 268.188,177.25 270,178.563 271.75,180.25 273.563,182.188 275.375,184.375 277.188,186.875 278.938,189.563 280.75,192.5 282.563,195.688 284.313,199 286.125,202.5 287.938,206.188 289.75,209.938 291.5,213.813 293.313,217.75 295.125,221.75 296.875,225.75 298.688,229.813 300.5,233.813 302.25,237.813 304.063,241.75 305.875,245.563 307.688,249.313 309.438,252.938 311.25,256.375 313.063,259.688 314.813,262.875 316.625,265.813 318.438,268.625 320.25,271.188 322,273.563 323.813,275.688 325.625,277.563 327.375,279.25 329.188,280.688 331,281.938 332.75,282.938 334.563,283.688 336.375,284.25 338.188,284.563 339.938,284.688 341.75,284.625 343.563,284.375 345.313,284 347.125,283.375 348.938,282.688 350.75,281.813 352.5,280.875 354.313,279.813 356.125,278.688 357.875,277.438 359.688,276.188 361.5,274.938 363.25,273.625 365.063,272.375 366.875,271.063 368.688,269.813 370.438,268.625 372.25,267.5 374.063,266.438 375.813,265.438 377.625,264.563 379.438,263.813 381.25,263.125 383,262.563 384.813,262.125 386.625,261.875 388.375,261.688 390.188,261.625 392,261.688 393.75,261.938 395.563,262.25 397.375,262.688 399.188,263.25 400.938,263.938 402.75,264.75 404.563,265.563 406.313,266.5 408.125,267.563 409.938,268.625 411.75,269.75 413.5,270.875 415.313,272.063 417.125,273.25 418.875,274.438 420.688,275.625 422.5,276.75 424.25,277.875 426.063,278.938 427.875,279.938 429.688,280.875 431.438,281.688 433.25,282.438 435.063,283.063 436.813,283.625 438.625,284.063 440.438,284.375 442.25,284.625 444,284.688 445.813,284.625 447.625,284.5 449.375,284.188 451.188,283.813 453,283.313 454.75,282.688 456.563,281.938 458.375,281.125 460.188,280.25 461.938,279.25 463.75,278.188 465.563,277.125 467.313,275.938 469.125,274.813 470.938,273.563 472.75,272.375 474.5,271.188 476.313,270 478.125,268.875 479.875,267.75 481.688,266.688 483.5,265.688 485.25,264.813 487.063,264 488.875,263.313 490.688,262.688 492.438,262.25 494.25,261.875 496.063,261.688 497.813,261.625 499.625,261.688 501.438,261.875 503.25,262.25 505,262.813 506.813,263.5 508.625,264.313 510.375,265.25 512.188,266.375 514,267.625 515.75,269 517.563,270.438 519.375,272.063 521.188,273.75 522.938,275.563 524.75,277.438 526.563,279.375 528.313,281.375 530.125,283.375 531.938,285.438 533.75,287.5" />
  <polyline
     style="fill:none;stroke:#000000;stroke-width:0.5"
     id="polyline3499"
     points="76.25,287.5 76.25,172.5" />
  <polyline
     style="fill:none;stroke:#000000;stroke-width:0.5"
     id="polyline3501"
     points="76.25,287.5 69.375,287.5" />
  <polyline
     style="fill:none;stroke:#000000;stroke-width:0.5"
     id="polyline3503"
     points="76.25,273.125 69.375,273.125" />
  <polyline
     style="fill:none;stroke:#000000;stroke-width:0.5"
     id="polyline3505"
     points="76.25,258.75 69.375,258.75" />
  <polyline
     style="fill:none;stroke:#000000;stroke-width:0.5"
     id="polyline3507"
     points="76.25,244.375 69.375,244.375" />
  <polyline
     style="fill:none;stroke:#000000;stroke-width:0.5"
     id="polyline3509"
     points="76.25,230 69.375,230" />
  <polyline
     style="fill:none;stroke:#000000;stroke-width:0.5"
     id="polyline3511"
     points="76.25,215.625 69.375,215.625" />
  <polyline
     style="fill:none;stroke:#000000;stroke-width:0.5"
     id="polyline3513"
     points="76.25,201.25 69.375,201.25" />
  <polyline
     style="fill:none;stroke:#000000;stroke-width:0.5"
     id="polyline3515"
     points="76.25,186.875 69.375,186.875" />
  <polyline
     style="fill:none;stroke:#000000;stroke-width:0.5"
     id="polyline3517"
     points="76.25,172.5 69.375,172.5" />
  <polyline
     style="fill:none;stroke:#000000;stroke-width:0.5"
     id="polyline3519"
     points="76.25,280.313 72.125,280.313" />
  <polyline
     style="fill:none;stroke:#000000;stroke-width:0.5"
     id="polyline3521"
     points="76.25,265.938 72.125,265.938" />
  <polyline
     style="fill:none;stroke:#000000;stroke-width:0.5"
     id="polyline3523"
     points="76.25,251.563 72.125,251.563" />
  <polyline
     style="fill:none;stroke:#000000;stroke-width:0.5"
     id="polyline3525"
     points="76.25,237.188 72.125,237.188" />
  <polyline
     style="fill:none;stroke:#000000;stroke-width:0.5"
     id="polyline3527"
     points="76.25,222.813 72.125,222.813" />
  <polyline
     style="fill:none;stroke:#000000;stroke-width:0.5"
     id="polyline3529"
     points="76.25,208.438 72.125,208.438" />
  <polyline
     style="fill:none;stroke:#000000;stroke-width:0.5"
     id="polyline3531"
     points="76.25,194.063 72.125,194.063" />
  <polyline
     style="fill:none;stroke:#000000;stroke-width:0.5"
     id="polyline3533"
     points="76.25,179.688 72.125,179.688" />
  <text
     id="text3535"
     font-weight="normal"
     font-style="normal"
     font-size="10"
     y="292"
     x="61"
     style="font-size:10px;font-style:normal;font-weight:normal;fill:#000000;stroke:none;font-family:SansSerif">0</text>
  <text
     id="text3537"
     font-weight="normal"
     font-style="normal"
     font-size="10"
     y="278"
     x="63"
     style="font-size:10px;font-style:normal;font-weight:normal;fill:#000000;stroke:none;font-family:SansSerif">1</text>
  <text
     id="text3539"
     font-weight="normal"
     font-style="normal"
     font-size="10"
     y="264"
     x="61"
     style="font-size:10px;font-style:normal;font-weight:normal;fill:#000000;stroke:none;font-family:SansSerif">2</text>
  <text
     id="text3541"
     font-weight="normal"
     font-style="normal"
     font-size="10"
     y="249"
     x="61"
     style="font-size:10px;font-style:normal;font-weight:normal;fill:#000000;stroke:none;font-family:SansSerif">3</text>
  <text
     id="text3543"
     font-weight="normal"
     font-style="normal"
     font-size="10"
     y="235"
     x="61"
     style="font-size:10px;font-style:normal;font-weight:normal;fill:#000000;stroke:none;font-family:SansSerif">4</text>
  <text
     id="text3545"
     font-weight="normal"
     font-style="normal"
     font-size="10"
     y="221"
     x="61"
     style="font-size:10px;font-style:normal;font-weight:normal;fill:#000000;stroke:none;font-family:SansSerif">5</text>
  <text
     id="text3547"
     font-weight="normal"
     font-style="normal"
     font-size="10"
     y="206"
     x="61"
     style="font-size:10px;font-style:normal;font-weight:normal;fill:#000000;stroke:none;font-family:SansSerif">6</text>
  <text
     id="text3549"
     font-weight="normal"
     font-style="normal"
     font-size="10"
     y="192"
     x="61"
     style="font-size:10px;font-style:normal;font-weight:normal;fill:#000000;stroke:none;font-family:SansSerif">7</text>
  <text
     id="text3551"
     font-weight="normal"
     font-style="normal"
     font-size="10"
     y="177"
     x="61"
     style="font-size:10px;font-style:normal;font-weight:normal;fill:#000000;stroke:none;font-family:SansSerif">8</text>
  <polyline
     style="fill:none;stroke:#000000;stroke-width:0.5"
     id="polyline3553"
     points="76.25,287.5 533.75,287.5" />
  <polyline
     style="fill:none;stroke:#000000;stroke-width:0.5"
     id="polyline3555"
     points="76.25,287.5 76.25,290.5" />
  <polyline
     style="fill:none;stroke:#000000;stroke-width:0.5"
     id="polyline3557"
     points="122,287.5 122,290.5" />
  <polyline
     style="fill:none;stroke:#000000;stroke-width:0.5"
     id="polyline3559"
     points="167.75,287.5 167.75,290.5" />
  <polyline
     style="fill:none;stroke:#000000;stroke-width:0.5"
     id="polyline3561"
     points="213.5,287.5 213.5,290.5" />
  <polyline
     style="fill:none;stroke:#000000;stroke-width:0.5"
     id="polyline3563"
     points="259.25,287.5 259.25,290.5" />
  <polyline
     style="fill:none;stroke:#000000;stroke-width:0.5"
     id="polyline3565"
     points="305,287.5 305,290.5" />
  <polyline
     style="fill:none;stroke:#000000;stroke-width:0.5"
     id="polyline3567"
     points="350.75,287.5 350.75,290.5" />
  <polyline
     style="fill:none;stroke:#000000;stroke-width:0.5"
     id="polyline3569"
     points="396.5,287.5 396.5,290.5" />
  <polyline
     style="fill:none;stroke:#000000;stroke-width:0.5"
     id="polyline3571"
     points="442.25,287.5 442.25,290.5" />
  <polyline
     style="fill:none;stroke:#000000;stroke-width:0.5"
     id="polyline3573"
     points="488,287.5 488,290.5" />
  <polyline
     style="fill:none;stroke:#000000;stroke-width:0.5"
     id="polyline3575"
     points="533.75,287.5 533.75,290.5" />
  <text
     id="text3577"
     font-weight="normal"
     font-style="normal"
     font-size="10"
     y="301"
     x="65"
     style="font-size:10px;font-style:normal;font-weight:normal;fill:#000000;stroke:none;font-family:SansSerif">0.00</text>
  <text
     id="text3579"
     font-weight="normal"
     font-style="normal"
     font-size="10"
     y="301"
     x="111"
     style="font-size:10px;font-style:normal;font-weight:normal;fill:#000000;stroke:none;font-family:SansSerif">0.05</text>
  <text
     id="text3581"
     font-weight="normal"
     font-style="normal"
     font-size="10"
     y="301"
     x="157"
     style="font-size:10px;font-style:normal;font-weight:normal;fill:#000000;stroke:none;font-family:SansSerif">0.10</text>
  <text
     id="text3583"
     font-weight="normal"
     font-style="normal"
     font-size="10"
     y="301"
     x="203"
     style="font-size:10px;font-style:normal;font-weight:normal;fill:#000000;stroke:none;font-family:SansSerif">0.15</text>
  <text
     id="text3585"
     font-weight="normal"
     font-style="normal"
     font-size="10"
     y="301"
     x="248"
     style="font-size:10px;font-style:normal;font-weight:normal;fill:#000000;stroke:none;font-family:SansSerif">0.20</text>
  <text
     id="text3587"
     font-weight="normal"
     font-style="normal"
     font-size="10"
     y="301"
     x="294"
     style="font-size:10px;font-style:normal;font-weight:normal;fill:#000000;stroke:none;font-family:SansSerif">0.25</text>
  <text
     id="text3589"
     font-weight="normal"
     font-style="normal"
     font-size="10"
     y="301"
     x="340"
     style="font-size:10px;font-style:normal;font-weight:normal;fill:#000000;stroke:none;font-family:SansSerif">0.30</text>
  <text
     id="text3591"
     font-weight="normal"
     font-style="normal"
     font-size="10"
     y="301"
     x="386"
     style="font-size:10px;font-style:normal;font-weight:normal;fill:#000000;stroke:none;font-family:SansSerif">0.35</text>
  <text
     id="text3593"
     font-weight="normal"
     font-style="normal"
     font-size="10"
     y="301"
     x="431"
     style="font-size:10px;font-style:normal;font-weight:normal;fill:#000000;stroke:none;font-family:SansSerif">0.40</text>
  <text
     id="text3595"
     font-weight="normal"
     font-style="normal"
     font-size="10"
     y="301"
     x="477"
     style="font-size:10px;font-style:normal;font-weight:normal;fill:#000000;stroke:none;font-family:SansSerif">0.45</text>
  <text
     id="text3597"
     font-weight="normal"
     font-style="normal"
     font-size="10"
     y="301"
     x="523"
     style="font-size:10px;font-style:normal;font-weight:normal;fill:#000000;stroke:none;font-family:SansSerif">0.50</text>
  <polygon
     style="fill:#ffffff"
     id="polygon3599"
     points="76.25,325.875 76.25,440.875 76.25,325.875 " />
  <polygon
     style="fill:#ffffff"
     id="polygon3601"
     points="76.25,440.875 76.25,440.875 76.25,325.875 " />
  <polygon
     style="fill:#ffffff"
     id="polygon3603"
     points="533.75,440.875 76.25,440.875 533.75,440.875 " />
  <polygon
     style="fill:#ffffff"
     id="polygon3605"
     points="76.25,440.875 76.25,440.875 533.75,440.875 " />
  <polyline
     style="fill:none;stroke:#000000;stroke-width:0.5"
     id="polyline3611"
     points="76.25,440.875 76.25,325.875 76.25,325.875 533.75,325.875 533.75,440.875 533.75,440.875 76.25,440.875" />
  <polyline
     style="fill:none;stroke:#000000;stroke-width:0.5"
     id="polyline3613"
     points="533.75,325.875 76.25,325.875" />
  <polyline
     style="fill:none;stroke:#000000;stroke-width:0.5"
     id="polyline3615"
     points="533.75,325.875 533.75,440.875" />
  <polyline
     style="fill:none;stroke:#000000;stroke-width:0.5"
     id="polyline3617"
     points="533.75,325.875 533.75,325.875" />
  <polyline
     style="fill:none;stroke:#0000ff;stroke-width:0.5"
     id="polyline3619"
     points="76.25,438 78,437.938 79.8125,437.75 81.625,437.438 83.375,437 85.1875,436.5 87,435.813 88.75,435.063 90.5625,434.188 92.375,433.25 94.1875,432.25 95.9375,431.188 97.75,430.063 99.5625,428.875 101.313,427.688 103.125,426.438 104.938,425.25 106.75,424.063 108.5,422.875 110.313,421.75 112.125,420.625 113.875,419.625 115.688,418.688 117.5,417.813 119.25,417.063 121.063,416.375 122.875,415.813 124.688,415.438 126.438,415.125 128.25,414.938 130.063,414.938 131.813,415.063 133.625,415.313 135.438,415.75 137.25,416.313 139,417 140.813,417.813 142.625,418.75 144.375,419.75 146.188,420.938 148,422.188 149.75,423.5 151.563,424.938 153.375,426.375 155.188,427.938 156.938,429.438 158.75,431 160.563,432.5 162.313,434.063 164.125,435.5 165.938,436.938 167.75,438.25 169.5,439.5 171.313,440.625 173.125,440.125 174.875,439.25 176.688,438.563 178.5,438.063 180.25,437.75 182.063,437.625 183.875,437.688 185.688,438 187.438,438.563 189.25,439.313 191.063,440.375 192.813,440.063 194.625,438.563 196.438,436.813 198.25,434.813 200,432.563 201.813,430.063 203.625,427.375 205.375,424.438 207.188,421.313 209,418 210.75,414.5 212.563,410.813 214.375,407 216.188,403.063 217.938,399.063 219.75,394.938 221.563,390.75 223.313,386.563 225.125,382.313 226.938,378.125 228.75,373.875 230.5,369.75 232.313,365.688 234.125,361.75 235.875,357.938 237.688,354.25 239.5,350.75 241.25,347.438 243.063,344.313 244.875,341.438 246.688,338.875 248.438,336.5 250.25,334.375 252.063,332.625 253.813,331.125 255.625,329.938 257.438,329.063 259.25,328.5 261,328.25 262.813,328.375 264.625,328.813 266.375,329.5 268.188,330.563 270,331.938 271.75,333.563 273.563,335.5 275.375,337.75 277.188,340.188 278.938,342.938 280.75,345.875 282.563,349 284.313,352.375 286.125,355.875 287.938,359.5 289.75,363.25 291.5,367.125 293.313,371.063 295.125,375.063 296.875,379.125 298.688,383.125 300.5,387.188 302.25,391.125 304.063,395.063 305.875,398.875 307.688,402.625 309.438,406.25 311.25,409.75 313.063,413.063 314.813,416.188 316.625,419.188 318.438,421.938 320.25,424.5 322,426.875 323.813,429 325.625,430.938 327.375,432.625 329.188,434.063 331,435.25 332.75,436.25 334.563,437 336.375,437.563 338.188,437.938 339.938,438.063 341.75,438 343.563,437.75 345.313,437.313 347.125,436.75 348.938,436 350.75,435.188 352.5,434.188 354.313,433.125 356.125,432 357.875,430.813 359.688,429.563 361.5,428.25 363.25,427 365.063,425.688 366.875,424.438 368.688,423.188 370.438,422 372.25,420.813 374.063,419.75 375.813,418.813 377.625,417.938 379.438,417.125 381.25,416.438 383,415.938 384.813,415.5 386.625,415.188 388.375,415 390.188,414.938 392,415.063 393.75,415.25 395.563,415.563 397.375,416.063 399.188,416.625 400.938,417.25 402.75,418.063 404.563,418.938 406.313,419.875 408.125,420.875 409.938,421.938 411.75,423.063 413.5,424.25 415.313,425.375 417.125,426.625 418.875,427.813 420.688,428.938 422.5,430.125 424.25,431.188 426.063,432.25 427.875,433.25 429.688,434.188 431.438,435 433.25,435.75 435.063,436.438 436.813,437 438.625,437.438 440.438,437.75 442.25,437.938 444,438 445.813,438 447.625,437.813 449.375,437.563 451.188,437.125 453,436.625 454.75,436 456.563,435.313 458.375,434.5 460.188,433.563 461.938,432.563 463.75,431.563 465.563,430.438 467.313,429.313 469.125,428.125 470.938,426.938 472.75,425.688 474.5,424.5 476.313,423.313 478.125,422.188 479.875,421.063 481.688,420 483.5,419.063 485.25,418.125 487.063,417.313 488.875,416.625 490.688,416.063 492.438,415.563 494.25,415.188 496.063,415 497.813,414.938 499.625,415 501.438,415.25 503.25,415.625 505,416.125 506.813,416.813 508.625,417.625 510.375,418.563 512.188,419.688 514,420.938 515.75,422.313 517.563,423.813 519.375,425.375 521.188,427.125 522.938,428.875 524.75,430.75 526.563,432.688 528.313,434.688 530.125,436.75 531.938,438.813 533.75,440.875" />
  <polyline
     style="fill:none;stroke:#000000;stroke-width:0.5"
     id="polyline3621"
     points="76.25,440.875 76.25,325.875" />
  <polyline
     style="fill:none;stroke:#000000;stroke-width:0.5"
     id="polyline3623"
     points="76.25,440.875 69.375,440.875" />
  <polyline
     style="fill:none;stroke:#000000;stroke-width:0.5"
     id="polyline3625"
     points="76.25,426.5 69.375,426.5" />
  <polyline
     style="fill:none;stroke:#000000;stroke-width:0.5"
     id="polyline3627"
     points="76.25,412.125 69.375,412.125" />
  <polyline
     style="fill:none;stroke:#000000;stroke-width:0.5"
     id="polyline3629"
     points="76.25,397.75 69.375,397.75" />
  <polyline
     style="fill:none;stroke:#000000;stroke-width:0.5"
     id="polyline3631"
     points="76.25,383.375 69.375,383.375" />
  <polyline
     style="fill:none;stroke:#000000;stroke-width:0.5"
     id="polyline3633"
     points="76.25,369 69.375,369" />
  <polyline
     style="fill:none;stroke:#000000;stroke-width:0.5"
     id="polyline3635"
     points="76.25,354.625 69.375,354.625" />
  <polyline
     style="fill:none;stroke:#000000;stroke-width:0.5"
     id="polyline3637"
     points="76.25,340.25 69.375,340.25" />
  <polyline
     style="fill:none;stroke:#000000;stroke-width:0.5"
     id="polyline3639"
     points="76.25,325.875 69.375,325.875" />
  <polyline
     style="fill:none;stroke:#000000;stroke-width:0.5"
     id="polyline3641"
     points="76.25,433.688 72.125,433.688" />
  <polyline
     style="fill:none;stroke:#000000;stroke-width:0.5"
     id="polyline3643"
     points="76.25,419.313 72.125,419.313" />
  <polyline
     style="fill:none;stroke:#000000;stroke-width:0.5"
     id="polyline3645"
     points="76.25,404.938 72.125,404.938" />
  <polyline
     style="fill:none;stroke:#000000;stroke-width:0.5"
     id="polyline3647"
     points="76.25,390.563 72.125,390.563" />
  <polyline
     style="fill:none;stroke:#000000;stroke-width:0.5"
     id="polyline3649"
     points="76.25,376.188 72.125,376.188" />
  <polyline
     style="fill:none;stroke:#000000;stroke-width:0.5"
     id="polyline3651"
     points="76.25,361.813 72.125,361.813" />
  <polyline
     style="fill:none;stroke:#000000;stroke-width:0.5"
     id="polyline3653"
     points="76.25,347.438 72.125,347.438" />
  <polyline
     style="fill:none;stroke:#000000;stroke-width:0.5"
     id="polyline3655"
     points="76.25,333.063 72.125,333.063" />
  <text
     id="text3657"
     font-weight="normal"
     font-style="normal"
     font-size="10"
     y="446"
     x="61"
     style="font-size:10px;font-style:normal;font-weight:normal;fill:#000000;stroke:none;font-family:SansSerif">0</text>
  <text
     id="text3659"
     font-weight="normal"
     font-style="normal"
     font-size="10"
     y="431"
     x="63"
     style="font-size:10px;font-style:normal;font-weight:normal;fill:#000000;stroke:none;font-family:SansSerif">1</text>
  <text
     id="text3661"
     font-weight="normal"
     font-style="normal"
     font-size="10"
     y="417"
     x="61"
     style="font-size:10px;font-style:normal;font-weight:normal;fill:#000000;stroke:none;font-family:SansSerif">2</text>
  <text
     id="text3663"
     font-weight="normal"
     font-style="normal"
     font-size="10"
     y="403"
     x="61"
     style="font-size:10px;font-style:normal;font-weight:normal;fill:#000000;stroke:none;font-family:SansSerif">3</text>
  <text
     id="text3665"
     font-weight="normal"
     font-style="normal"
     font-size="10"
     y="388"
     x="61"
     style="font-size:10px;font-style:normal;font-weight:normal;fill:#000000;stroke:none;font-family:SansSerif">4</text>
  <text
     id="text3667"
     font-weight="normal"
     font-style="normal"
     font-size="10"
     y="374"
     x="61"
     style="font-size:10px;font-style:normal;font-weight:normal;fill:#000000;stroke:none;font-family:SansSerif">5</text>
  <text
     id="text3669"
     font-weight="normal"
     font-style="normal"
     font-size="10"
     y="360"
     x="61"
     style="font-size:10px;font-style:normal;font-weight:normal;fill:#000000;stroke:none;font-family:SansSerif">6</text>
  <text
     id="text3671"
     font-weight="normal"
     font-style="normal"
     font-size="10"
     y="345"
     x="61"
     style="font-size:10px;font-style:normal;font-weight:normal;fill:#000000;stroke:none;font-family:SansSerif">7</text>
  <text
     id="text3673"
     font-weight="normal"
     font-style="normal"
     font-size="10"
     y="331"
     x="61"
     style="font-size:10px;font-style:normal;font-weight:normal;fill:#000000;stroke:none;font-family:SansSerif">8</text>
  <polyline
     style="fill:none;stroke:#000000;stroke-width:0.5"
     id="polyline3675"
     points="76.25,440.875 533.75,440.875" />
  <polyline
     style="fill:none;stroke:#000000;stroke-width:0.5"
     id="polyline3677"
     points="76.25,440.875 76.25,443.875" />
  <polyline
     style="fill:none;stroke:#000000;stroke-width:0.5"
     id="polyline3679"
     points="122,440.875 122,443.875" />
  <polyline
     style="fill:none;stroke:#000000;stroke-width:0.5"
     id="polyline3681"
     points="167.75,440.875 167.75,443.875" />
  <polyline
     style="fill:none;stroke:#000000;stroke-width:0.5"
     id="polyline3683"
     points="213.5,440.875 213.5,443.875" />
  <polyline
     style="fill:none;stroke:#000000;stroke-width:0.5"
     id="polyline3685"
     points="259.25,440.875 259.25,443.875" />
  <polyline
     style="fill:none;stroke:#000000;stroke-width:0.5"
     id="polyline3687"
     points="305,440.875 305,443.875" />
  <polyline
     style="fill:none;stroke:#000000;stroke-width:0.5"
     id="polyline3689"
     points="350.75,440.875 350.75,443.875" />
  <polyline
     style="fill:none;stroke:#000000;stroke-width:0.5"
     id="polyline3691"
     points="396.5,440.875 396.5,443.875" />
  <polyline
     style="fill:none;stroke:#000000;stroke-width:0.5"
     id="polyline3693"
     points="442.25,440.875 442.25,443.875" />
  <polyline
     style="fill:none;stroke:#000000;stroke-width:0.5"
     id="polyline3695"
     points="488,440.875 488,443.875" />
  <polyline
     style="fill:none;stroke:#000000;stroke-width:0.5"
     id="polyline3697"
     points="533.75,440.875 533.75,443.875" />
  <text
     id="text3699"
     font-weight="normal"
     font-style="normal"
     font-size="10"
     y="455"
     x="65"
     style="font-size:10px;font-style:normal;font-weight:normal;fill:#000000;stroke:none;font-family:SansSerif">0.00</text>
  <text
     id="text3701"
     font-weight="normal"
     font-style="normal"
     font-size="10"
     y="455"
     x="111"
     style="font-size:10px;font-style:normal;font-weight:normal;fill:#000000;stroke:none;font-family:SansSerif">0.05</text>
  <text
     id="text3703"
     font-weight="normal"
     font-style="normal"
     font-size="10"
     y="455"
     x="157"
     style="font-size:10px;font-style:normal;font-weight:normal;fill:#000000;stroke:none;font-family:SansSerif">0.10</text>
  <text
     id="text3705"
     font-weight="normal"
     font-style="normal"
     font-size="10"
     y="455"
     x="203"
     style="font-size:10px;font-style:normal;font-weight:normal;fill:#000000;stroke:none;font-family:SansSerif">0.15</text>
  <text
     id="text3707"
     font-weight="normal"
     font-style="normal"
     font-size="10"
     y="455"
     x="248"
     style="font-size:10px;font-style:normal;font-weight:normal;fill:#000000;stroke:none;font-family:SansSerif">0.20</text>
  <text
     id="text3709"
     font-weight="normal"
     font-style="normal"
     font-size="10"
     y="455"
     x="294"
     style="font-size:10px;font-style:normal;font-weight:normal;fill:#000000;stroke:none;font-family:SansSerif">0.25</text>
  <text
     id="text3711"
     font-weight="normal"
     font-style="normal"
     font-size="10"
     y="455"
     x="340"
     style="font-size:10px;font-style:normal;font-weight:normal;fill:#000000;stroke:none;font-family:SansSerif">0.30</text>
  <text
     id="text3713"
     font-weight="normal"
     font-style="normal"
     font-size="10"
     y="455"
     x="386"
     style="font-size:10px;font-style:normal;font-weight:normal;fill:#000000;stroke:none;font-family:SansSerif">0.35</text>
  <text
     id="text3715"
     font-weight="normal"
     font-style="normal"
     font-size="10"
     y="455"
     x="431"
     style="font-size:10px;font-style:normal;font-weight:normal;fill:#000000;stroke:none;font-family:SansSerif">0.40</text>
  <text
     id="text3717"
     font-weight="normal"
     font-style="normal"
     font-size="10"
     y="455"
     x="477"
     style="font-size:10px;font-style:normal;font-weight:normal;fill:#000000;stroke:none;font-family:SansSerif">0.45</text>
  <text
     id="text3719"
     font-weight="normal"
     font-style="normal"
     font-size="10"
     y="455"
     x="523"
     style="font-size:10px;font-style:normal;font-weight:normal;fill:#000000;stroke:none;font-family:SansSerif">0.50</text>
</svg>
