<?xml version="1.0" encoding="UTF-8" standalone="no"?>
<svg
   xmlns:dc="http://purl.org/dc/elements/1.1/"
   xmlns:cc="http://creativecommons.org/ns#"
   xmlns:rdf="http://www.w3.org/1999/02/22-rdf-syntax-ns#"
   xmlns:svg="http://www.w3.org/2000/svg"
   xmlns="http://www.w3.org/2000/svg"
   xmlns:sodipodi="http://sodipodi.sourceforge.net/DTD/sodipodi-0.dtd"
   xmlns:inkscape="http://www.inkscape.org/namespaces/inkscape"
   width="610px"
   height="384px"
   viewBox="0 0 610 384"
   style="stroke:none"
   id="svg5583"
   version="1.1"
   inkscape:version="0.48.2 r9819"
   sodipodi:docname="intr3.svg">
  <metadata
     id="metadata5991">
    <rdf:RDF>
      <cc:Work
         rdf:about="">
        <dc:format>image/svg+xml</dc:format>
        <dc:type
           rdf:resource="http://purl.org/dc/dcmitype/StillImage" />
      </cc:Work>
    </rdf:RDF>
  </metadata>
  <sodipodi:namedview
     pagecolor="#ffffff"
     bordercolor="#666666"
     borderopacity="1"
     objecttolerance="10"
     gridtolerance="10"
     guidetolerance="10"
     inkscape:pageopacity="0"
     inkscape:pageshadow="2"
     inkscape:window-width="1280"
     inkscape:window-height="744"
     id="namedview5989"
     showgrid="false"
     inkscape:zoom="1.1508197"
     inkscape:cx="305"
     inkscape:cy="192"
     inkscape:window-x="-4"
     inkscape:window-y="-4"
     inkscape:window-maximized="1"
     inkscape:current-layer="svg5583" />
  <title
     id="title5585">Графическое окно 1</title>
  <desc
     id="desc5587">
Creator: GL2PS 1.3.2, (C) 1999-2006 Christophe Geuzaine (geuz@geuz.org)
For: Scilab
CreationDate: Sat Mar 31 01:47:26 2012
</desc>
  <defs
     id="defs5589" />
  <polygon
     points="610,384 0,384 0,0 610,0 "
     id="polygon5591"
     transform="matrix(0.82621083,0,0,0.85970145,52.136752,26.937322)"
     style="fill:#ffffff;stroke:#000000" />
  <g
     id="g5593">
    <polygon
       fill="#ffffff"
       points="76.25,336 76.25,48 76.25,48"
       id="polygon5595" />
    <polygon
       fill="#ffffff"
       points="76.25,336 76.25,48 76.25,336"
       id="polygon5597" />
    <polygon
       fill="#ffffff"
       points="76.25,336 533.75,336 533.75,336"
       id="polygon5599" />
    <polygon
       fill="#ffffff"
       points="76.25,336 533.75,336 76.25,336"
       id="polygon5601" />
    <polygon
       fill="#ffffff"
       points="76.25,336 533.75,336 533.75,48"
       id="polygon5603" />
    <polygon
       fill="#ffffff"
       points="76.25,336 533.75,48 76.25,48"
       id="polygon5605" />
    <polyline
       fill="none"
       stroke="#000000"
       stroke-width="0.5"
       points="76.25,336 76.25,48 76.25,48 533.75,48 533.75,336 533.75,336 76.25,336"
       id="polyline5607" />
    <polyline
       fill="none"
       stroke="#000000"
       stroke-width="0.5"
       points="533.75,48 76.25,48"
       id="polyline5609" />
    <polyline
       fill="none"
       stroke="#000000"
       stroke-width="0.5"
       points="533.75,48 533.75,336"
       id="polyline5611" />
    <polyline
       fill="none"
       stroke="#000000"
       stroke-width="0.5"
       points="533.75,48 533.75,48"
       id="polyline5613" />
    <polyline
       fill="none"
       stroke="#000000"
       stroke-width="0.5"
       points="76.1875,307 80,307"
       id="polyline5615" />
    <polyline
       fill="none"
       stroke="#000000"
       stroke-width="0.5"
       points="79,307 87,307"
       id="polyline5617" />
    <polyline
       fill="none"
       stroke="#000000"
       stroke-width="0.5"
       points="83,311 83,303"
       id="polyline5619" />
    <polyline
       fill="none"
       stroke="#000000"
       stroke-width="0.5"
       points="85,305 93,305"
       id="polyline5621" />
    <polyline
       fill="none"
       stroke="#000000"
       stroke-width="0.5"
       points="89,309 89,301"
       id="polyline5623" />
    <polyline
       fill="none"
       stroke="#000000"
       stroke-width="0.5"
       points="92,303 100,303"
       id="polyline5625" />
    <polyline
       fill="none"
       stroke="#000000"
       stroke-width="0.5"
       points="96,307 96,299"
       id="polyline5627" />
    <polyline
       fill="none"
       stroke="#000000"
       stroke-width="0.5"
       points="98,301 106,301"
       id="polyline5629" />
    <polyline
       fill="none"
       stroke="#000000"
       stroke-width="0.5"
       points="102,305 102,297"
       id="polyline5631" />
    <polyline
       fill="none"
       stroke="#000000"
       stroke-width="0.5"
       points="105,298 113,298"
       id="polyline5633" />
    <polyline
       fill="none"
       stroke="#000000"
       stroke-width="0.5"
       points="109,302 109,294"
       id="polyline5635" />
    <polyline
       fill="none"
       stroke="#000000"
       stroke-width="0.5"
       points="111,295 119,295"
       id="polyline5637" />
    <polyline
       fill="none"
       stroke="#000000"
       stroke-width="0.5"
       points="115,299 115,291"
       id="polyline5639" />
    <polyline
       fill="none"
       stroke="#000000"
       stroke-width="0.5"
       points="118,293 126,293"
       id="polyline5641" />
    <polyline
       fill="none"
       stroke="#000000"
       stroke-width="0.5"
       points="122,297 122,289"
       id="polyline5643" />
    <polyline
       fill="none"
       stroke="#000000"
       stroke-width="0.5"
       points="125,291 133,291"
       id="polyline5645" />
    <polyline
       fill="none"
       stroke="#000000"
       stroke-width="0.5"
       points="129,295 129,287"
       id="polyline5647" />
    <polyline
       fill="none"
       stroke="#000000"
       stroke-width="0.5"
       points="131,289 139,289"
       id="polyline5649" />
    <polyline
       fill="none"
       stroke="#000000"
       stroke-width="0.5"
       points="135,293 135,285"
       id="polyline5651" />
    <polyline
       fill="none"
       stroke="#000000"
       stroke-width="0.5"
       points="138,289 146,289"
       id="polyline5653" />
    <polyline
       fill="none"
       stroke="#000000"
       stroke-width="0.5"
       points="142,293 142,285"
       id="polyline5655" />
    <polyline
       fill="none"
       stroke="#000000"
       stroke-width="0.5"
       points="144,289 152,289"
       id="polyline5657" />
    <polyline
       fill="none"
       stroke="#000000"
       stroke-width="0.5"
       points="148,293 148,285"
       id="polyline5659" />
    <polyline
       fill="none"
       stroke="#000000"
       stroke-width="0.5"
       points="151,291 159,291"
       id="polyline5661" />
    <polyline
       fill="none"
       stroke="#000000"
       stroke-width="0.5"
       points="155,295 155,287"
       id="polyline5663" />
    <polyline
       fill="none"
       stroke="#000000"
       stroke-width="0.5"
       points="157,293 165,293"
       id="polyline5665" />
    <polyline
       fill="none"
       stroke="#000000"
       stroke-width="0.5"
       points="161,297 161,289"
       id="polyline5667" />
    <polyline
       fill="none"
       stroke="#000000"
       stroke-width="0.5"
       points="164,295 172,295"
       id="polyline5669" />
    <polyline
       fill="none"
       stroke="#000000"
       stroke-width="0.5"
       points="168,299 168,291"
       id="polyline5671" />
    <polyline
       fill="none"
       stroke="#000000"
       stroke-width="0.5"
       points="170,298 178,298"
       id="polyline5673" />
    <polyline
       fill="none"
       stroke="#000000"
       stroke-width="0.5"
       points="174,302 174,294"
       id="polyline5675" />
    <polyline
       fill="none"
       stroke="#000000"
       stroke-width="0.5"
       points="177,301 185,301"
       id="polyline5677" />
    <polyline
       fill="none"
       stroke="#000000"
       stroke-width="0.5"
       points="181,305 181,297"
       id="polyline5679" />
    <polyline
       fill="none"
       stroke="#000000"
       stroke-width="0.5"
       points="183,303 191,303"
       id="polyline5681" />
    <polyline
       fill="none"
       stroke="#000000"
       stroke-width="0.5"
       points="187,307 187,299"
       id="polyline5683" />
    <polyline
       fill="none"
       stroke="#000000"
       stroke-width="0.5"
       points="190,305 198,305"
       id="polyline5685" />
    <polyline
       fill="none"
       stroke="#000000"
       stroke-width="0.5"
       points="194,309 194,301"
       id="polyline5687" />
    <polyline
       fill="none"
       stroke="#000000"
       stroke-width="0.5"
       points="196,307 204,307"
       id="polyline5689" />
    <polyline
       fill="none"
       stroke="#000000"
       stroke-width="0.5"
       points="200,311 200,303"
       id="polyline5691" />
    <polyline
       fill="none"
       stroke="#000000"
       stroke-width="0.5"
       points="203,307 211,307"
       id="polyline5693" />
    <polyline
       fill="none"
       stroke="#000000"
       stroke-width="0.5"
       points="207,311 207,303"
       id="polyline5695" />
    <polyline
       fill="none"
       stroke="#000000"
       stroke-width="0.5"
       points="210,307 218,307"
       id="polyline5697" />
    <polyline
       fill="none"
       stroke="#000000"
       stroke-width="0.5"
       points="214,311 214,303"
       id="polyline5699" />
    <polyline
       fill="none"
       stroke="#000000"
       stroke-width="0.5"
       points="216,305 224,305"
       id="polyline5701" />
    <polyline
       fill="none"
       stroke="#000000"
       stroke-width="0.5"
       points="220,309 220,301"
       id="polyline5703" />
    <polyline
       fill="none"
       stroke="#000000"
       stroke-width="0.5"
       points="223,303 231,303"
       id="polyline5705" />
    <polyline
       fill="none"
       stroke="#000000"
       stroke-width="0.5"
       points="227,307 227,299"
       id="polyline5707" />
    <polyline
       fill="none"
       stroke="#000000"
       stroke-width="0.5"
       points="229,301 237,301"
       id="polyline5709" />
    <polyline
       fill="none"
       stroke="#000000"
       stroke-width="0.5"
       points="233,305 233,297"
       id="polyline5711" />
    <polyline
       fill="none"
       stroke="#000000"
       stroke-width="0.5"
       points="236,298 244,298"
       id="polyline5713" />
    <polyline
       fill="none"
       stroke="#000000"
       stroke-width="0.5"
       points="240,302 240,294"
       id="polyline5715" />
    <polyline
       fill="none"
       stroke="#000000"
       stroke-width="0.5"
       points="242,295 250,295"
       id="polyline5717" />
    <polyline
       fill="none"
       stroke="#000000"
       stroke-width="0.5"
       points="246,299 246,291"
       id="polyline5719" />
    <polyline
       fill="none"
       stroke="#000000"
       stroke-width="0.5"
       points="249,293 257,293"
       id="polyline5721" />
    <polyline
       fill="none"
       stroke="#000000"
       stroke-width="0.5"
       points="253,297 253,289"
       id="polyline5723" />
    <polyline
       fill="none"
       stroke="#000000"
       stroke-width="0.5"
       points="255,291 263,291"
       id="polyline5725" />
    <polyline
       fill="none"
       stroke="#000000"
       stroke-width="0.5"
       points="259,295 259,287"
       id="polyline5727" />
    <polyline
       fill="none"
       stroke="#000000"
       stroke-width="0.5"
       points="262,289 270,289"
       id="polyline5729" />
    <polyline
       fill="none"
       stroke="#000000"
       stroke-width="0.5"
       points="266,293 266,285"
       id="polyline5731" />
    <polyline
       fill="none"
       stroke="#000000"
       stroke-width="0.5"
       points="268,289 276,289"
       id="polyline5733" />
    <polyline
       fill="none"
       stroke="#000000"
       stroke-width="0.5"
       points="272,293 272,285"
       id="polyline5735" />
    <polyline
       fill="none"
       stroke="#000000"
       stroke-width="0.5"
       points="275,289 283,289"
       id="polyline5737" />
    <polyline
       fill="none"
       stroke="#000000"
       stroke-width="0.5"
       points="279,293 279,285"
       id="polyline5739" />
    <polyline
       fill="none"
       stroke="#000000"
       stroke-width="0.5"
       points="281,291 289,291"
       id="polyline5741" />
    <polyline
       fill="none"
       stroke="#000000"
       stroke-width="0.5"
       points="285,295 285,287"
       id="polyline5743" />
    <polyline
       fill="none"
       stroke="#000000"
       stroke-width="0.5"
       points="288,293 296,293"
       id="polyline5745" />
    <polyline
       fill="none"
       stroke="#000000"
       stroke-width="0.5"
       points="292,297 292,289"
       id="polyline5747" />
    <polyline
       fill="none"
       stroke="#000000"
       stroke-width="0.5"
       points="294,295 302,295"
       id="polyline5749" />
    <polyline
       fill="none"
       stroke="#000000"
       stroke-width="0.5"
       points="298,299 298,291"
       id="polyline5751" />
    <polyline
       fill="none"
       stroke="#000000"
       stroke-width="0.5"
       points="301,298 309,298"
       id="polyline5753" />
    <polyline
       fill="none"
       stroke="#000000"
       stroke-width="0.5"
       points="305,302 305,294"
       id="polyline5755" />
    <polyline
       fill="none"
       stroke="#000000"
       stroke-width="0.5"
       points="308,301 316,301"
       id="polyline5757" />
    <polyline
       fill="none"
       stroke="#000000"
       stroke-width="0.5"
       points="312,305 312,297"
       id="polyline5759" />
    <polyline
       fill="none"
       stroke="#000000"
       stroke-width="0.5"
       points="314,303 322,303"
       id="polyline5761" />
    <polyline
       fill="none"
       stroke="#000000"
       stroke-width="0.5"
       points="318,307 318,299"
       id="polyline5763" />
    <polyline
       fill="none"
       stroke="#000000"
       stroke-width="0.5"
       points="321,305 329,305"
       id="polyline5765" />
    <polyline
       fill="none"
       stroke="#000000"
       stroke-width="0.5"
       points="325,309 325,301"
       id="polyline5767" />
    <polyline
       fill="none"
       stroke="#000000"
       stroke-width="0.5"
       points="327,307 335,307"
       id="polyline5769" />
    <polyline
       fill="none"
       stroke="#000000"
       stroke-width="0.5"
       points="331,311 331,303"
       id="polyline5771" />
    <polyline
       fill="none"
       stroke="#000000"
       stroke-width="0.5"
       points="334,307 342,307"
       id="polyline5773" />
    <polyline
       fill="none"
       stroke="#000000"
       stroke-width="0.5"
       points="338,311 338,303"
       id="polyline5775" />
    <polyline
       fill="none"
       stroke="#000000"
       stroke-width="0.5"
       points="340,307 348,307"
       id="polyline5777" />
    <polyline
       fill="none"
       stroke="#000000"
       stroke-width="0.5"
       points="344,311 344,303"
       id="polyline5779" />
    <polyline
       fill="none"
       stroke="#000000"
       stroke-width="0.5"
       points="347,305 355,305"
       id="polyline5781" />
    <polyline
       fill="none"
       stroke="#000000"
       stroke-width="0.5"
       points="351,309 351,301"
       id="polyline5783" />
    <polyline
       fill="none"
       stroke="#000000"
       stroke-width="0.5"
       points="353,303 361,303"
       id="polyline5785" />
    <polyline
       fill="none"
       stroke="#000000"
       stroke-width="0.5"
       points="357,307 357,299"
       id="polyline5787" />
    <polyline
       fill="none"
       stroke="#000000"
       stroke-width="0.5"
       points="360,301 368,301"
       id="polyline5789" />
    <polyline
       fill="none"
       stroke="#000000"
       stroke-width="0.5"
       points="364,305 364,297"
       id="polyline5791" />
    <polyline
       fill="none"
       stroke="#000000"
       stroke-width="0.5"
       points="366,298 374,298"
       id="polyline5793" />
    <polyline
       fill="none"
       stroke="#000000"
       stroke-width="0.5"
       points="370,302 370,294"
       id="polyline5795" />
    <polyline
       fill="none"
       stroke="#000000"
       stroke-width="0.5"
       points="373,295 381,295"
       id="polyline5797" />
    <polyline
       fill="none"
       stroke="#000000"
       stroke-width="0.5"
       points="377,299 377,291"
       id="polyline5799" />
    <polyline
       fill="none"
       stroke="#000000"
       stroke-width="0.5"
       points="379,293 387,293"
       id="polyline5801" />
    <polyline
       fill="none"
       stroke="#000000"
       stroke-width="0.5"
       points="383,297 383,289"
       id="polyline5803" />
    <polyline
       fill="none"
       stroke="#000000"
       stroke-width="0.5"
       points="386,291 394,291"
       id="polyline5805" />
    <polyline
       fill="none"
       stroke="#000000"
       stroke-width="0.5"
       points="390,295 390,287"
       id="polyline5807" />
    <polyline
       fill="none"
       stroke="#000000"
       stroke-width="0.5"
       points="393,289 401,289"
       id="polyline5809" />
    <polyline
       fill="none"
       stroke="#000000"
       stroke-width="0.5"
       points="397,293 397,285"
       id="polyline5811" />
    <polyline
       fill="none"
       stroke="#000000"
       stroke-width="0.5"
       points="399,289 407,289"
       id="polyline5813" />
    <polyline
       fill="none"
       stroke="#000000"
       stroke-width="0.5"
       points="403,293 403,285"
       id="polyline5815" />
    <polyline
       fill="none"
       stroke="#000000"
       stroke-width="0.5"
       points="406,289 414,289"
       id="polyline5817" />
    <polyline
       fill="none"
       stroke="#000000"
       stroke-width="0.5"
       points="410,293 410,285"
       id="polyline5819" />
    <polyline
       fill="none"
       stroke="#000000"
       stroke-width="0.5"
       points="412,291 420,291"
       id="polyline5821" />
    <polyline
       fill="none"
       stroke="#000000"
       stroke-width="0.5"
       points="416,295 416,287"
       id="polyline5823" />
    <polyline
       fill="none"
       stroke="#000000"
       stroke-width="0.5"
       points="419,293 427,293"
       id="polyline5825" />
    <polyline
       fill="none"
       stroke="#000000"
       stroke-width="0.5"
       points="423,297 423,289"
       id="polyline5827" />
    <polyline
       fill="none"
       stroke="#000000"
       stroke-width="0.5"
       points="425,295 433,295"
       id="polyline5829" />
    <polyline
       fill="none"
       stroke="#000000"
       stroke-width="0.5"
       points="429,299 429,291"
       id="polyline5831" />
    <polyline
       fill="none"
       stroke="#000000"
       stroke-width="0.5"
       points="432,298 440,298"
       id="polyline5833" />
    <polyline
       fill="none"
       stroke="#000000"
       stroke-width="0.5"
       points="436,302 436,294"
       id="polyline5835" />
    <polyline
       fill="none"
       stroke="#000000"
       stroke-width="0.5"
       points="438,301 446,301"
       id="polyline5837" />
    <polyline
       fill="none"
       stroke="#000000"
       stroke-width="0.5"
       points="442,305 442,297"
       id="polyline5839" />
    <polyline
       fill="none"
       stroke="#000000"
       stroke-width="0.5"
       points="445,303 453,303"
       id="polyline5841" />
    <polyline
       fill="none"
       stroke="#000000"
       stroke-width="0.5"
       points="449,307 449,299"
       id="polyline5843" />
    <polyline
       fill="none"
       stroke="#000000"
       stroke-width="0.5"
       points="451,305 459,305"
       id="polyline5845" />
    <polyline
       fill="none"
       stroke="#000000"
       stroke-width="0.5"
       points="455,309 455,301"
       id="polyline5847" />
    <polyline
       fill="none"
       stroke="#000000"
       stroke-width="0.5"
       points="458,307 466,307"
       id="polyline5849" />
    <polyline
       fill="none"
       stroke="#000000"
       stroke-width="0.5"
       points="462,311 462,303"
       id="polyline5851" />
    <polyline
       fill="none"
       stroke="#000000"
       stroke-width="0.5"
       points="464,307 472,307"
       id="polyline5853" />
    <polyline
       fill="none"
       stroke="#000000"
       stroke-width="0.5"
       points="468,311 468,303"
       id="polyline5855" />
    <polyline
       fill="none"
       stroke="#000000"
       stroke-width="0.5"
       points="471,307 479,307"
       id="polyline5857" />
    <polyline
       fill="none"
       stroke="#000000"
       stroke-width="0.5"
       points="475,311 475,303"
       id="polyline5859" />
    <polyline
       fill="none"
       stroke="#000000"
       stroke-width="0.5"
       points="477,305 485,305"
       id="polyline5861" />
    <polyline
       fill="none"
       stroke="#000000"
       stroke-width="0.5"
       points="481,309 481,301"
       id="polyline5863" />
    <polyline
       fill="none"
       stroke="#00ff00"
       stroke-width="0.5"
       points="76.25,307.25 82.75,240.75 89.3125,290.313 95.8125,226.313 102.375,279.813 108.875,220.813 115.438,279.813 122,226.313 128.5,290.313 135.063,240.75 141.563,307.25 148.125,258.5 154.625,324.188 161.188,272.938 167.75,334.625 174.25,278.438 180.813,334.625 187.313,272.938 193.875,324.188 200.375,258.5 206.938,307.25 213.5,240.75 220,290.313 226.563,226.313 233.063,279.813 239.625,220.813 246.125,279.813 252.688,226.313 259.25,290.313 265.75,240.75 272.313,307.25 278.813,258.5 285.375,324.188 291.875,272.938 298.438,334.625 305,278.438 311.5,334.625 318.063,272.938 324.563,324.188 331.125,258.5 337.625,307.25 344.188,240.75 350.75,290.313 357.25,226.313 363.813,279.813 370.313,220.813 376.875,279.813 383.375,226.313 389.938,290.313 396.5,240.75 403,307.25 409.563,258.5 416.063,324.188 422.625,272.938 429.125,334.625 435.688,278.438 442.25,334.625 448.75,272.938 455.313,324.188 461.813,258.5 468.375,307.25 474.875,240.75 481.438,290.313"
       id="polyline5865" />
    <polyline
       fill="none"
       stroke="#0000ff"
       stroke-width="0.5"
       points="76.25,307.25 82.75,307.25 89.3125,297.813 95.8125,297.813 102.375,285.563 108.875,285.563 115.438,272.188 122,272.188 128.5,259.938 135.063,259.938 141.563,250.5 148.125,250.5 154.625,244.563 161.188,244.563 167.75,241.438 174.25,241.438 180.813,239.438 187.313,239.438 193.875,236.375 200.375,236.375 206.938,230.438 213.5,230.438 220,221 226.563,221 233.063,208.75 239.625,208.75 246.125,195.375 252.688,195.375 259.25,183.125 265.75,183.125 272.313,173.688 278.813,173.688 285.375,167.75 291.875,167.75 298.438,164.688 305,164.688 311.5,162.625 318.063,162.625 324.563,159.563 331.125,159.563 337.625,153.625 344.188,153.625 350.75,144.188 357.25,144.188 363.813,131.938 370.313,131.938 376.875,118.563 383.375,118.563 389.938,106.313 396.5,106.313 403,96.875 409.563,96.875 416.063,90.9375 422.625,90.9375 429.125,87.875 435.688,87.875 442.25,85.875 448.75,85.875 455.313,82.75 461.813,82.75 468.375,76.8125 474.875,76.8125 481.438,67.375"
       id="polyline5867" />
    <polyline
       fill="none"
       stroke="#ff0000"
       stroke-width="0.5"
       points="76.25,307.25 82.75,303.875 89.3125,299.75 95.8125,294.813 102.375,289.438 108.875,283.75 115.438,278.063 122,272.625 128.5,267.75 135.063,263.563 141.563,260.25 148.125,257.813 154.625,256.25 161.188,255.375 167.75,255 174.25,254.938 180.813,254.875 187.313,254.5 193.875,253.625 200.375,252.063 206.938,249.625 213.5,246.313 220,242.125 226.563,237.25 233.063,231.813 239.625,226.125 246.125,220.438 252.688,215.063 259.25,210.125 265.75,206 272.313,202.625 278.813,200.188 285.375,198.625 291.875,197.75 298.438,197.438 305,197.313 311.5,197.25 318.063,196.938 324.563,196.063 331.125,194.438 337.625,192 344.188,188.688 350.75,184.563 357.25,179.625 363.813,174.25 370.313,168.563 376.875,162.875 383.375,157.438 389.938,152.563 396.5,148.375 403,145.063 409.563,142.625 416.063,141 422.625,140.125 429.125,139.813 435.688,139.75 442.25,139.688 448.75,139.313 455.313,138.438 461.813,136.875 468.375,134.438 474.875,131.125 481.438,126.938"
       id="polyline5869" />
    <polyline
       fill="none"
       stroke="#ff00ff"
       stroke-width="0.5"
       points="76.25,307.25 82.75,307.25 89.3125,302.688 95.8125,303.5 102.375,296.688 108.875,298.75 115.438,290.125 122,294 128.5,284.188 135.063,290.25 141.563,279.625 148.125,288.188 154.625,276.75 161.188,287.813 167.75,275.375 174.25,288.438 180.813,274.5 187.313,289.063 193.875,273.125 200.375,288.625 206.938,270.25 213.5,286.563 220,265.688 226.563,282.875 233.063,259.688 239.625,278.125 246.125,253.188 252.688,273.375 259.25,247.188 265.75,269.625 272.313,242.625 278.813,267.563 285.375,239.813 291.875,267.125 298.438,238.438 305,267.75 311.5,237.563 318.063,268.438 324.563,236.125 331.125,268 337.625,233.313 344.188,265.938 350.75,228.75 357.25,262.188 363.813,222.75 370.313,257.438 376.875,216.25 383.375,252.688 389.938,210.25 396.5,249 403,205.688 409.563,246.938 416.063,202.875 422.625,246.5 429.125,201.438 435.688,247.125 442.25,200.563 448.75,247.75 455.313,199.188 461.813,247.375 468.375,196.375 474.875,245.313 481.438,191.813"
       id="polyline5871" />
    <polyline
       fill="none"
       stroke="#000000"
       stroke-width="0.5"
       points="76.25,336 76.25,48"
       id="polyline5873" />
    <polyline
       fill="none"
       stroke="#000000"
       stroke-width="0.5"
       points="76.25,336 69.375,336"
       id="polyline5875" />
    <polyline
       fill="none"
       stroke="#000000"
       stroke-width="0.5"
       points="76.25,307.25 69.375,307.25"
       id="polyline5877" />
    <polyline
       fill="none"
       stroke="#000000"
       stroke-width="0.5"
       points="76.25,278.438 69.375,278.438"
       id="polyline5879" />
    <polyline
       fill="none"
       stroke="#000000"
       stroke-width="0.5"
       points="76.25,249.625 69.375,249.625"
       id="polyline5881" />
    <polyline
       fill="none"
       stroke="#000000"
       stroke-width="0.5"
       points="76.25,220.813 69.375,220.813"
       id="polyline5883" />
    <polyline
       fill="none"
       stroke="#000000"
       stroke-width="0.5"
       points="76.25,192 69.375,192"
       id="polyline5885" />
    <polyline
       fill="none"
       stroke="#000000"
       stroke-width="0.5"
       points="76.25,163.25 69.375,163.25"
       id="polyline5887" />
    <polyline
       fill="none"
       stroke="#000000"
       stroke-width="0.5"
       points="76.25,134.438 69.375,134.438"
       id="polyline5889" />
    <polyline
       fill="none"
       stroke="#000000"
       stroke-width="0.5"
       points="76.25,105.625 69.375,105.625"
       id="polyline5891" />
    <polyline
       fill="none"
       stroke="#000000"
       stroke-width="0.5"
       points="76.25,76.8125 69.375,76.8125"
       id="polyline5893" />
    <polyline
       fill="none"
       stroke="#000000"
       stroke-width="0.5"
       points="76.25,48 69.375,48"
       id="polyline5895" />
    <polyline
       fill="none"
       stroke="#000000"
       stroke-width="0.5"
       points="76.25,321.625 72.125,321.625"
       id="polyline5897" />
    <polyline
       fill="none"
       stroke="#000000"
       stroke-width="0.5"
       points="76.25,292.813 72.125,292.813"
       id="polyline5899" />
    <polyline
       fill="none"
       stroke="#000000"
       stroke-width="0.5"
       points="76.25,264 72.125,264"
       id="polyline5901" />
    <polyline
       fill="none"
       stroke="#000000"
       stroke-width="0.5"
       points="76.25,235.25 72.125,235.25"
       id="polyline5903" />
    <polyline
       fill="none"
       stroke="#000000"
       stroke-width="0.5"
       points="76.25,206.438 72.125,206.438"
       id="polyline5905" />
    <polyline
       fill="none"
       stroke="#000000"
       stroke-width="0.5"
       points="76.25,177.625 72.125,177.625"
       id="polyline5907" />
    <polyline
       fill="none"
       stroke="#000000"
       stroke-width="0.5"
       points="76.25,148.813 72.125,148.813"
       id="polyline5909" />
    <polyline
       fill="none"
       stroke="#000000"
       stroke-width="0.5"
       points="76.25,120 72.125,120"
       id="polyline5911" />
    <polyline
       fill="none"
       stroke="#000000"
       stroke-width="0.5"
       points="76.25,91.25 72.125,91.25"
       id="polyline5913" />
    <polyline
       fill="none"
       stroke="#000000"
       stroke-width="0.5"
       points="76.25,62.4375 72.125,62.4375"
       id="polyline5915" />
    <text
       fill="#000000"
       style="stroke:none"
       x="59"
       y="341"
       transform="rotate(0, 59, 341)"
       font-size="10"
       font-family="SansSerif"
       font-style="normal"
       font-weight="normal"
       id="text5917">-1</text>
    <text
       fill="#000000"
       style="stroke:none"
       x="61"
       y="312"
       transform="rotate(0, 61, 312)"
       font-size="10"
       font-family="SansSerif"
       font-style="normal"
       font-weight="normal"
       id="text5919">0</text>
    <text
       fill="#000000"
       style="stroke:none"
       x="63"
       y="283"
       transform="rotate(0, 63, 283)"
       font-size="10"
       font-family="SansSerif"
       font-style="normal"
       font-weight="normal"
       id="text5921">1</text>
    <text
       fill="#000000"
       style="stroke:none"
       x="61"
       y="255"
       transform="rotate(0, 61, 255)"
       font-size="10"
       font-family="SansSerif"
       font-style="normal"
       font-weight="normal"
       id="text5923">2</text>
    <text
       fill="#000000"
       style="stroke:none"
       x="61"
       y="226"
       transform="rotate(0, 61, 226)"
       font-size="10"
       font-family="SansSerif"
       font-style="normal"
       font-weight="normal"
       id="text5925">3</text>
    <text
       fill="#000000"
       style="stroke:none"
       x="61"
       y="197"
       transform="rotate(0, 61, 197)"
       font-size="10"
       font-family="SansSerif"
       font-style="normal"
       font-weight="normal"
       id="text5927">4</text>
    <text
       fill="#000000"
       style="stroke:none"
       x="61"
       y="168"
       transform="rotate(0, 61, 168)"
       font-size="10"
       font-family="SansSerif"
       font-style="normal"
       font-weight="normal"
       id="text5929">5</text>
    <text
       fill="#000000"
       style="stroke:none"
       x="61"
       y="139"
       transform="rotate(0, 61, 139)"
       font-size="10"
       font-family="SansSerif"
       font-style="normal"
       font-weight="normal"
       id="text5931">6</text>
    <text
       fill="#000000"
       style="stroke:none"
       x="61"
       y="111"
       transform="rotate(0, 61, 111)"
       font-size="10"
       font-family="SansSerif"
       font-style="normal"
       font-weight="normal"
       id="text5933">7</text>
    <text
       fill="#000000"
       style="stroke:none"
       x="61"
       y="82"
       transform="rotate(0, 61, 82)"
       font-size="10"
       font-family="SansSerif"
       font-style="normal"
       font-weight="normal"
       id="text5935">8</text>
    <text
       fill="#000000"
       style="stroke:none"
       x="61"
       y="53"
       transform="rotate(0, 61, 53)"
       font-size="10"
       font-family="SansSerif"
       font-style="normal"
       font-weight="normal"
       id="text5937">9</text>
    <polyline
       fill="none"
       stroke="#000000"
       stroke-width="0.5"
       points="76.25,336 533.75,336"
       id="polyline5939" />
    <polyline
       fill="none"
       stroke="#000000"
       stroke-width="0.5"
       points="76.25,336 76.25,340.375"
       id="polyline5941" />
    <polyline
       fill="none"
       stroke="#000000"
       stroke-width="0.5"
       points="141.563,336 141.563,340.375"
       id="polyline5943" />
    <polyline
       fill="none"
       stroke="#000000"
       stroke-width="0.5"
       points="206.938,336 206.938,340.375"
       id="polyline5945" />
    <polyline
       fill="none"
       stroke="#000000"
       stroke-width="0.5"
       points="272.313,336 272.313,340.375"
       id="polyline5947" />
    <polyline
       fill="none"
       stroke="#000000"
       stroke-width="0.5"
       points="337.625,336 337.625,340.375"
       id="polyline5949" />
    <polyline
       fill="none"
       stroke="#000000"
       stroke-width="0.5"
       points="403,336 403,340.375"
       id="polyline5951" />
    <polyline
       fill="none"
       stroke="#000000"
       stroke-width="0.5"
       points="468.375,336 468.375,340.375"
       id="polyline5953" />
    <polyline
       fill="none"
       stroke="#000000"
       stroke-width="0.5"
       points="533.75,336 533.75,340.375"
       id="polyline5955" />
    <polyline
       fill="none"
       stroke="#000000"
       stroke-width="0.5"
       points="108.875,336 108.875,338.625"
       id="polyline5957" />
    <polyline
       fill="none"
       stroke="#000000"
       stroke-width="0.5"
       points="174.25,336 174.25,338.625"
       id="polyline5959" />
    <polyline
       fill="none"
       stroke="#000000"
       stroke-width="0.5"
       points="239.625,336 239.625,338.625"
       id="polyline5961" />
    <polyline
       fill="none"
       stroke="#000000"
       stroke-width="0.5"
       points="305,336 305,338.625"
       id="polyline5963" />
    <polyline
       fill="none"
       stroke="#000000"
       stroke-width="0.5"
       points="370.313,336 370.313,338.625"
       id="polyline5965" />
    <polyline
       fill="none"
       stroke="#000000"
       stroke-width="0.5"
       points="435.688,336 435.688,338.625"
       id="polyline5967" />
    <polyline
       fill="none"
       stroke="#000000"
       stroke-width="0.5"
       points="501.063,336 501.063,338.625"
       id="polyline5969" />
    <text
       fill="#000000"
       style="stroke:none"
       x="73"
       y="351"
       transform="rotate(0, 73, 351)"
       font-size="10"
       font-family="SansSerif"
       font-style="normal"
       font-weight="normal"
       id="text5971">0</text>
    <text
       fill="#000000"
       style="stroke:none"
       x="139"
       y="351"
       transform="rotate(0, 139, 351)"
       font-size="10"
       font-family="SansSerif"
       font-style="normal"
       font-weight="normal"
       id="text5973">1</text>
    <text
       fill="#000000"
       style="stroke:none"
       x="203"
       y="351"
       transform="rotate(0, 203, 351)"
       font-size="10"
       font-family="SansSerif"
       font-style="normal"
       font-weight="normal"
       id="text5975">2</text>
    <text
       fill="#000000"
       style="stroke:none"
       x="269"
       y="351"
       transform="rotate(0, 269, 351)"
       font-size="10"
       font-family="SansSerif"
       font-style="normal"
       font-weight="normal"
       id="text5977">3</text>
    <text
       fill="#000000"
       style="stroke:none"
       x="334"
       y="351"
       transform="rotate(0, 334, 351)"
       font-size="10"
       font-family="SansSerif"
       font-style="normal"
       font-weight="normal"
       id="text5979">4</text>
    <text
       fill="#000000"
       style="stroke:none"
       x="400"
       y="351"
       transform="rotate(0, 400, 351)"
       font-size="10"
       font-family="SansSerif"
       font-style="normal"
       font-weight="normal"
       id="text5981">5</text>
    <text
       fill="#000000"
       style="stroke:none"
       x="465"
       y="351"
       transform="rotate(0, 465, 351)"
       font-size="10"
       font-family="SansSerif"
       font-style="normal"
       font-weight="normal"
       id="text5983">6</text>
    <text
       fill="#000000"
       style="stroke:none"
       x="530"
       y="351"
       transform="rotate(0, 530, 351)"
       font-size="10"
       font-family="SansSerif"
       font-style="normal"
       font-weight="normal"
       id="text5985">7</text>
    <text
       fill="#000000"
       style="stroke:none"
       x="239"
       y="39"
       transform="rotate(0, 239, 39)"
       font-size="10"
       font-family="SansSerif"
       font-style="normal"
       font-weight="normal"
       id="text5987">Test integration methods</text>
  </g>
  <g
     transform="translate(119.68807,-122.78844)"
     style="stroke:none"
     id="g4837">
    <g
       id="g4817">
      <rect
         style="fill:#ffffff;stroke:#000000;stroke-width:0.84598196"
         id="rect3546"
         width="106.10033"
         height="60.626755"
         x="301.70621"
         y="180.46367" />
      <path
         style="fill:none;stroke:#00ff00;stroke-width:2;stroke-linecap:butt;stroke-linejoin:miter;stroke-opacity:1"
         d="m 308.23093,189.39406 23.9089,4.52331"
         id="path3548"
         inkscape:connector-curvature="0" />
      <path
         inkscape:connector-curvature="0"
         id="path3550"
         d="m 308.23093,198.74787 23.9089,4.52331"
         style="fill:none;stroke:#0000ff;stroke-width:2;stroke-linecap:butt;stroke-linejoin:miter;stroke-opacity:1" />
      <path
         style="fill:none;stroke:#ff0000;stroke-width:2;stroke-linecap:butt;stroke-linejoin:miter;stroke-opacity:1"
         d="m 308.23093,208.04025 23.9089,4.52331"
         id="path3552"
         inkscape:connector-curvature="0" />
      <path
         inkscape:connector-curvature="0"
         id="path3554"
         d="m 308.23093,216.68644 23.9089,4.52331"
         style="fill:none;stroke:#ff00ff;stroke-width:2;stroke-linecap:butt;stroke-linejoin:miter;stroke-opacity:1" />
      <text
         xml:space="preserve"
         style="font-size:9.80318928px;font-style:normal;font-weight:normal;line-height:125%;letter-spacing:0px;word-spacing:0px;fill:#008000;fill-opacity:1;stroke:none;font-family:Sans"
         x="342.55042"
         y="191.75229"
         id="text3556"
         sodipodi:linespacing="125%"
         transform="scale(0.98010005,1.020304)"><tspan
           sodipodi:role="line"
           id="tspan3558"
           x="342.55042"
           y="191.75229">Original signal</tspan></text>
      <text
         transform="scale(0.98010005,1.020304)"
         sodipodi:linespacing="125%"
         id="text3560"
         y="201.55331"
         x="342.55042"
         style="font-size:9.80318928px;font-style:normal;font-variant:normal;font-weight:normal;font-stretch:normal;text-align:start;line-height:125%;letter-spacing:0px;word-spacing:0px;writing-mode:lr-tb;text-anchor:start;fill:#000080;fill-opacity:1;stroke:none;font-family:Sans;-inkscape-font-specification:Sans"
         xml:space="preserve"><tspan
           sodipodi:role="line"
           id="tspan3586"
           x="342.55042"
           y="201.55331">Simpson's</tspan></text>
      <text
         xml:space="preserve"
         style="font-size:9.80318928px;font-style:normal;font-variant:normal;font-weight:normal;font-stretch:normal;text-align:start;line-height:125%;letter-spacing:0px;word-spacing:0px;writing-mode:lr-tb;text-anchor:start;fill:#800000;fill-opacity:1;stroke:none;font-family:Sans;-inkscape-font-specification:Sans"
         x="342.55042"
         y="211.35434"
         id="text3564"
         sodipodi:linespacing="125%"
         transform="scale(0.98010005,1.020304)"><tspan
           y="211.35434"
           x="342.55042"
           sodipodi:role="line"
           id="tspan3588">Trapezoid</tspan></text>
      <text
         transform="scale(0.98010005,1.020304)"
         sodipodi:linespacing="125%"
         id="text3568"
         y="221.15536"
         x="342.55042"
         style="font-size:9.80318928px;font-style:normal;font-variant:normal;font-weight:normal;font-stretch:normal;text-align:start;line-height:125%;letter-spacing:0px;word-spacing:0px;writing-mode:lr-tb;text-anchor:start;fill:#800080;fill-opacity:1;stroke:none;font-family:Sans;-inkscape-font-specification:Sans"
         xml:space="preserve"><tspan
           y="221.15536"
           x="342.55042"
           sodipodi:role="line"
           id="tspan3951">Leo Tick's</tspan></text>
      <g
         id="g3578"
         transform="matrix(0.55941834,0,0,0.55941834,399.9013,75.221977)">
        <path
           inkscape:connector-curvature="0"
           id="path3574"
           d="m -130,270 0,20"
           style="fill:none;stroke:#000000;stroke-width:2;stroke-linecap:butt;stroke-linejoin:miter;stroke-opacity:1" />
        <path
           inkscape:connector-curvature="0"
           id="path3576"
           d="m -140,280 c 20,0 20,0 20,0"
           style="fill:none;stroke:#000000;stroke-width:2;stroke-linecap:butt;stroke-linejoin:miter;stroke-opacity:1" />
      </g>
      <text
         xml:space="preserve"
         style="font-size:9.80318928px;font-style:normal;font-weight:normal;line-height:125%;letter-spacing:0px;word-spacing:0px;fill:#000000;fill-opacity:1;stroke:none;font-family:Sans"
         x="342.55042"
         y="230.95639"
         id="text3582"
         sodipodi:linespacing="125%"
         transform="scale(0.98010005,1.020304)"><tspan
           sodipodi:role="line"
           id="tspan3584"
           x="342.55042"
           y="230.95639">Real</tspan></text>
    </g>
  </g>
</svg>
