<?xml version="1.0" encoding="UTF-8" standalone="no"?>
<svg
   xmlns:dc="http://purl.org/dc/elements/1.1/"
   xmlns:cc="http://creativecommons.org/ns#"
   xmlns:rdf="http://www.w3.org/1999/02/22-rdf-syntax-ns#"
   xmlns:svg="http://www.w3.org/2000/svg"
   xmlns="http://www.w3.org/2000/svg"
   xmlns:sodipodi="http://sodipodi.sourceforge.net/DTD/sodipodi-0.dtd"
   xmlns:inkscape="http://www.inkscape.org/namespaces/inkscape"
   width="610px"
   height="460px"
   viewBox="0 0 610 460"
   style="stroke:none"
   id="svg4385"
   version="1.1"
   inkscape:version="0.48.2 r9819"
   sodipodi:docname="intr2.svg">
  <metadata
     id="metadata4815">
    <rdf:RDF>
      <cc:Work
         rdf:about="">
        <dc:format>image/svg+xml</dc:format>
        <dc:type
           rdf:resource="http://purl.org/dc/dcmitype/StillImage" />
      </cc:Work>
    </rdf:RDF>
  </metadata>
  <sodipodi:namedview
     pagecolor="#ffffff"
     bordercolor="#666666"
     borderopacity="1"
     objecttolerance="10"
     gridtolerance="10"
     guidetolerance="10"
     inkscape:pageopacity="0"
     inkscape:pageshadow="2"
     inkscape:window-width="1280"
     inkscape:window-height="744"
     id="namedview4813"
     showgrid="false"
     inkscape:zoom="1.026087"
     inkscape:cx="305"
     inkscape:cy="230"
     inkscape:window-x="-4"
     inkscape:window-y="-4"
     inkscape:window-maximized="1"
     inkscape:current-layer="svg4385" />
  <title
     id="title4387">Графическое окно 1</title>
  <desc
     id="desc4389">
Creator: GL2PS 1.3.2, (C) 1999-2006 Christophe Geuzaine (geuz@geuz.org)
For: Scilab
CreationDate: Sat Mar 31 01:45:30 2012
</desc>
  <defs
     id="defs4391" />
  <polygon
     points="0,0 610,0 610,460 0,460 "
     id="polygon4393"
     transform="matrix(0.84662406,0,0,0.86228814,46,30)"
     style="fill:#ffffff;stroke:#000000" />
  <g
     id="g4395">
    <polygon
       fill="#ffffff"
       points="76.25,402.5 76.25,57.5 76.25,57.5"
       id="polygon4397" />
    <polygon
       fill="#ffffff"
       points="76.25,402.5 76.25,57.5 76.25,402.5"
       id="polygon4399" />
    <polygon
       fill="#ffffff"
       points="76.25,402.5 533.75,402.5 533.75,402.5"
       id="polygon4401" />
    <polygon
       fill="#ffffff"
       points="76.25,402.5 533.75,402.5 76.25,402.5"
       id="polygon4403" />
    <polygon
       fill="#ffffff"
       points="76.25,402.5 533.75,402.5 533.75,57.5"
       id="polygon4405" />
    <polygon
       fill="#ffffff"
       points="76.25,402.5 533.75,57.5 76.25,57.5"
       id="polygon4407" />
    <polyline
       fill="none"
       stroke="#000000"
       stroke-width="0.5"
       points="76.25,402.5 76.25,57.5 76.25,57.5 533.75,57.5 533.75,402.5 533.75,402.5 76.25,402.5"
       id="polyline4409" />
    <polyline
       fill="none"
       stroke="#000000"
       stroke-width="0.5"
       points="533.75,57.5 76.25,57.5"
       id="polyline4411" />
    <polyline
       fill="none"
       stroke="#000000"
       stroke-width="0.5"
       points="533.75,57.5 533.75,402.5"
       id="polyline4413" />
    <polyline
       fill="none"
       stroke="#000000"
       stroke-width="0.5"
       points="533.75,57.5 533.75,57.5"
       id="polyline4415" />
    <polyline
       fill="none"
       stroke="#000000"
       stroke-width="0.5"
       points="76.1875,245 80,245"
       id="polyline4417" />
    <polyline
       fill="none"
       stroke="#000000"
       stroke-width="0.5"
       points="79,226 87,226"
       id="polyline4419" />
    <polyline
       fill="none"
       stroke="#000000"
       stroke-width="0.5"
       points="83,230 83,222"
       id="polyline4421" />
    <polyline
       fill="none"
       stroke="#000000"
       stroke-width="0.5"
       points="86,238 94,238"
       id="polyline4423" />
    <polyline
       fill="none"
       stroke="#000000"
       stroke-width="0.5"
       points="90,242 90,234"
       id="polyline4425" />
    <polyline
       fill="none"
       stroke="#000000"
       stroke-width="0.5"
       points="93,238 101,238"
       id="polyline4427" />
    <polyline
       fill="none"
       stroke="#000000"
       stroke-width="0.5"
       points="97,242 97,234"
       id="polyline4429" />
    <polyline
       fill="none"
       stroke="#000000"
       stroke-width="0.5"
       points="100,226 108,226"
       id="polyline4431" />
    <polyline
       fill="none"
       stroke="#000000"
       stroke-width="0.5"
       points="104,230 104,222"
       id="polyline4433" />
    <polyline
       fill="none"
       stroke="#000000"
       stroke-width="0.5"
       points="107,245 115,245"
       id="polyline4435" />
    <polyline
       fill="none"
       stroke="#000000"
       stroke-width="0.5"
       points="111,249 111,241"
       id="polyline4437" />
    <polyline
       fill="none"
       stroke="#000000"
       stroke-width="0.5"
       points="114,226 122,226"
       id="polyline4439" />
    <polyline
       fill="none"
       stroke="#000000"
       stroke-width="0.5"
       points="118,230 118,222"
       id="polyline4441" />
    <polyline
       fill="none"
       stroke="#000000"
       stroke-width="0.5"
       points="121,238 129,238"
       id="polyline4443" />
    <polyline
       fill="none"
       stroke="#000000"
       stroke-width="0.5"
       points="125,242 125,234"
       id="polyline4445" />
    <polyline
       fill="none"
       stroke="#000000"
       stroke-width="0.5"
       points="128,238 136,238"
       id="polyline4447" />
    <polyline
       fill="none"
       stroke="#000000"
       stroke-width="0.5"
       points="132,242 132,234"
       id="polyline4449" />
    <polyline
       fill="none"
       stroke="#000000"
       stroke-width="0.5"
       points="135,226 143,226"
       id="polyline4451" />
    <polyline
       fill="none"
       stroke="#000000"
       stroke-width="0.5"
       points="139,230 139,222"
       id="polyline4453" />
    <polyline
       fill="none"
       stroke="#000000"
       stroke-width="0.5"
       points="142,245 150,245"
       id="polyline4455" />
    <polyline
       fill="none"
       stroke="#000000"
       stroke-width="0.5"
       points="146,249 146,241"
       id="polyline4457" />
    <polyline
       fill="none"
       stroke="#000000"
       stroke-width="0.5"
       points="149,226 157,226"
       id="polyline4459" />
    <polyline
       fill="none"
       stroke="#000000"
       stroke-width="0.5"
       points="153,230 153,222"
       id="polyline4461" />
    <polyline
       fill="none"
       stroke="#000000"
       stroke-width="0.5"
       points="156,238 164,238"
       id="polyline4463" />
    <polyline
       fill="none"
       stroke="#000000"
       stroke-width="0.5"
       points="160,242 160,234"
       id="polyline4465" />
    <polyline
       fill="none"
       stroke="#000000"
       stroke-width="0.5"
       points="163,238 171,238"
       id="polyline4467" />
    <polyline
       fill="none"
       stroke="#000000"
       stroke-width="0.5"
       points="167,242 167,234"
       id="polyline4469" />
    <polyline
       fill="none"
       stroke="#000000"
       stroke-width="0.5"
       points="170,226 178,226"
       id="polyline4471" />
    <polyline
       fill="none"
       stroke="#000000"
       stroke-width="0.5"
       points="174,230 174,222"
       id="polyline4473" />
    <polyline
       fill="none"
       stroke="#000000"
       stroke-width="0.5"
       points="177,245 185,245"
       id="polyline4475" />
    <polyline
       fill="none"
       stroke="#000000"
       stroke-width="0.5"
       points="181,249 181,241"
       id="polyline4477" />
    <polyline
       fill="none"
       stroke="#000000"
       stroke-width="0.5"
       points="184,226 192,226"
       id="polyline4479" />
    <polyline
       fill="none"
       stroke="#000000"
       stroke-width="0.5"
       points="188,230 188,222"
       id="polyline4481" />
    <polyline
       fill="none"
       stroke="#000000"
       stroke-width="0.5"
       points="191,238 199,238"
       id="polyline4483" />
    <polyline
       fill="none"
       stroke="#000000"
       stroke-width="0.5"
       points="195,242 195,234"
       id="polyline4485" />
    <polyline
       fill="none"
       stroke="#000000"
       stroke-width="0.5"
       points="197,238 205,238"
       id="polyline4487" />
    <polyline
       fill="none"
       stroke="#000000"
       stroke-width="0.5"
       points="201,242 201,234"
       id="polyline4489" />
    <polyline
       fill="none"
       stroke="#000000"
       stroke-width="0.5"
       points="204,226 212,226"
       id="polyline4491" />
    <polyline
       fill="none"
       stroke="#000000"
       stroke-width="0.5"
       points="208,230 208,222"
       id="polyline4493" />
    <polyline
       fill="none"
       stroke="#000000"
       stroke-width="0.5"
       points="211,245 219,245"
       id="polyline4495" />
    <polyline
       fill="none"
       stroke="#000000"
       stroke-width="0.5"
       points="215,249 215,241"
       id="polyline4497" />
    <polyline
       fill="none"
       stroke="#000000"
       stroke-width="0.5"
       points="218,226 226,226"
       id="polyline4499" />
    <polyline
       fill="none"
       stroke="#000000"
       stroke-width="0.5"
       points="222,230 222,222"
       id="polyline4501" />
    <polyline
       fill="none"
       stroke="#000000"
       stroke-width="0.5"
       points="225,238 233,238"
       id="polyline4503" />
    <polyline
       fill="none"
       stroke="#000000"
       stroke-width="0.5"
       points="229,242 229,234"
       id="polyline4505" />
    <polyline
       fill="none"
       stroke="#000000"
       stroke-width="0.5"
       points="232,238 240,238"
       id="polyline4507" />
    <polyline
       fill="none"
       stroke="#000000"
       stroke-width="0.5"
       points="236,242 236,234"
       id="polyline4509" />
    <polyline
       fill="none"
       stroke="#000000"
       stroke-width="0.5"
       points="239,226 247,226"
       id="polyline4511" />
    <polyline
       fill="none"
       stroke="#000000"
       stroke-width="0.5"
       points="243,230 243,222"
       id="polyline4513" />
    <polyline
       fill="none"
       stroke="#000000"
       stroke-width="0.5"
       points="246,245 254,245"
       id="polyline4515" />
    <polyline
       fill="none"
       stroke="#000000"
       stroke-width="0.5"
       points="250,249 250,241"
       id="polyline4517" />
    <polyline
       fill="none"
       stroke="#000000"
       stroke-width="0.5"
       points="253,226 261,226"
       id="polyline4519" />
    <polyline
       fill="none"
       stroke="#000000"
       stroke-width="0.5"
       points="257,230 257,222"
       id="polyline4521" />
    <polyline
       fill="none"
       stroke="#000000"
       stroke-width="0.5"
       points="260,238 268,238"
       id="polyline4523" />
    <polyline
       fill="none"
       stroke="#000000"
       stroke-width="0.5"
       points="264,242 264,234"
       id="polyline4525" />
    <polyline
       fill="none"
       stroke="#000000"
       stroke-width="0.5"
       points="267,238 275,238"
       id="polyline4527" />
    <polyline
       fill="none"
       stroke="#000000"
       stroke-width="0.5"
       points="271,242 271,234"
       id="polyline4529" />
    <polyline
       fill="none"
       stroke="#000000"
       stroke-width="0.5"
       points="274,226 282,226"
       id="polyline4531" />
    <polyline
       fill="none"
       stroke="#000000"
       stroke-width="0.5"
       points="278,230 278,222"
       id="polyline4533" />
    <polyline
       fill="none"
       stroke="#000000"
       stroke-width="0.5"
       points="281,245 289,245"
       id="polyline4535" />
    <polyline
       fill="none"
       stroke="#000000"
       stroke-width="0.5"
       points="285,249 285,241"
       id="polyline4537" />
    <polyline
       fill="none"
       stroke="#000000"
       stroke-width="0.5"
       points="288,226 296,226"
       id="polyline4539" />
    <polyline
       fill="none"
       stroke="#000000"
       stroke-width="0.5"
       points="292,230 292,222"
       id="polyline4541" />
    <polyline
       fill="none"
       stroke="#000000"
       stroke-width="0.5"
       points="295,238 303,238"
       id="polyline4543" />
    <polyline
       fill="none"
       stroke="#000000"
       stroke-width="0.5"
       points="299,242 299,234"
       id="polyline4545" />
    <polyline
       fill="none"
       stroke="#000000"
       stroke-width="0.5"
       points="302,238 310,238"
       id="polyline4547" />
    <polyline
       fill="none"
       stroke="#000000"
       stroke-width="0.5"
       points="306,242 306,234"
       id="polyline4549" />
    <polyline
       fill="none"
       stroke="#000000"
       stroke-width="0.5"
       points="309,226 317,226"
       id="polyline4551" />
    <polyline
       fill="none"
       stroke="#000000"
       stroke-width="0.5"
       points="313,230 313,222"
       id="polyline4553" />
    <polyline
       fill="none"
       stroke="#000000"
       stroke-width="0.5"
       points="316,245 324,245"
       id="polyline4555" />
    <polyline
       fill="none"
       stroke="#000000"
       stroke-width="0.5"
       points="320,249 320,241"
       id="polyline4557" />
    <polyline
       fill="none"
       stroke="#000000"
       stroke-width="0.5"
       points="323,226 331,226"
       id="polyline4559" />
    <polyline
       fill="none"
       stroke="#000000"
       stroke-width="0.5"
       points="327,230 327,222"
       id="polyline4561" />
    <polyline
       fill="none"
       stroke="#000000"
       stroke-width="0.5"
       points="330,238 338,238"
       id="polyline4563" />
    <polyline
       fill="none"
       stroke="#000000"
       stroke-width="0.5"
       points="334,242 334,234"
       id="polyline4565" />
    <polyline
       fill="none"
       stroke="#000000"
       stroke-width="0.5"
       points="337,238 345,238"
       id="polyline4567" />
    <polyline
       fill="none"
       stroke="#000000"
       stroke-width="0.5"
       points="341,242 341,234"
       id="polyline4569" />
    <polyline
       fill="none"
       stroke="#000000"
       stroke-width="0.5"
       points="344,226 352,226"
       id="polyline4571" />
    <polyline
       fill="none"
       stroke="#000000"
       stroke-width="0.5"
       points="348,230 348,222"
       id="polyline4573" />
    <polyline
       fill="none"
       stroke="#000000"
       stroke-width="0.5"
       points="351,245 359,245"
       id="polyline4575" />
    <polyline
       fill="none"
       stroke="#000000"
       stroke-width="0.5"
       points="355,249 355,241"
       id="polyline4577" />
    <polyline
       fill="none"
       stroke="#000000"
       stroke-width="0.5"
       points="358,226 366,226"
       id="polyline4579" />
    <polyline
       fill="none"
       stroke="#000000"
       stroke-width="0.5"
       points="362,230 362,222"
       id="polyline4581" />
    <polyline
       fill="none"
       stroke="#000000"
       stroke-width="0.5"
       points="364,238 372,238"
       id="polyline4583" />
    <polyline
       fill="none"
       stroke="#000000"
       stroke-width="0.5"
       points="368,242 368,234"
       id="polyline4585" />
    <polyline
       fill="none"
       stroke="#000000"
       stroke-width="0.5"
       points="371,238 379,238"
       id="polyline4587" />
    <polyline
       fill="none"
       stroke="#000000"
       stroke-width="0.5"
       points="375,242 375,234"
       id="polyline4589" />
    <polyline
       fill="none"
       stroke="#000000"
       stroke-width="0.5"
       points="378,226 386,226"
       id="polyline4591" />
    <polyline
       fill="none"
       stroke="#000000"
       stroke-width="0.5"
       points="382,230 382,222"
       id="polyline4593" />
    <polyline
       fill="none"
       stroke="#000000"
       stroke-width="0.5"
       points="385,245 393,245"
       id="polyline4595" />
    <polyline
       fill="none"
       stroke="#000000"
       stroke-width="0.5"
       points="389,249 389,241"
       id="polyline4597" />
    <polyline
       fill="none"
       stroke="#000000"
       stroke-width="0.5"
       points="392,226 400,226"
       id="polyline4599" />
    <polyline
       fill="none"
       stroke="#000000"
       stroke-width="0.5"
       points="396,230 396,222"
       id="polyline4601" />
    <polyline
       fill="none"
       stroke="#000000"
       stroke-width="0.5"
       points="399,238 407,238"
       id="polyline4603" />
    <polyline
       fill="none"
       stroke="#000000"
       stroke-width="0.5"
       points="403,242 403,234"
       id="polyline4605" />
    <polyline
       fill="none"
       stroke="#000000"
       stroke-width="0.5"
       points="406,238 414,238"
       id="polyline4607" />
    <polyline
       fill="none"
       stroke="#000000"
       stroke-width="0.5"
       points="410,242 410,234"
       id="polyline4609" />
    <polyline
       fill="none"
       stroke="#000000"
       stroke-width="0.5"
       points="413,226 421,226"
       id="polyline4611" />
    <polyline
       fill="none"
       stroke="#000000"
       stroke-width="0.5"
       points="417,230 417,222"
       id="polyline4613" />
    <polyline
       fill="none"
       stroke="#000000"
       stroke-width="0.5"
       points="420,245 428,245"
       id="polyline4615" />
    <polyline
       fill="none"
       stroke="#000000"
       stroke-width="0.5"
       points="424,249 424,241"
       id="polyline4617" />
    <polyline
       fill="none"
       stroke="#000000"
       stroke-width="0.5"
       points="427,226 435,226"
       id="polyline4619" />
    <polyline
       fill="none"
       stroke="#000000"
       stroke-width="0.5"
       points="431,230 431,222"
       id="polyline4621" />
    <polyline
       fill="none"
       stroke="#000000"
       stroke-width="0.5"
       points="434,238 442,238"
       id="polyline4623" />
    <polyline
       fill="none"
       stroke="#000000"
       stroke-width="0.5"
       points="438,242 438,234"
       id="polyline4625" />
    <polyline
       fill="none"
       stroke="#000000"
       stroke-width="0.5"
       points="441,238 449,238"
       id="polyline4627" />
    <polyline
       fill="none"
       stroke="#000000"
       stroke-width="0.5"
       points="445,242 445,234"
       id="polyline4629" />
    <polyline
       fill="none"
       stroke="#000000"
       stroke-width="0.5"
       points="448,226 456,226"
       id="polyline4631" />
    <polyline
       fill="none"
       stroke="#000000"
       stroke-width="0.5"
       points="452,230 452,222"
       id="polyline4633" />
    <polyline
       fill="none"
       stroke="#000000"
       stroke-width="0.5"
       points="455,245 463,245"
       id="polyline4635" />
    <polyline
       fill="none"
       stroke="#000000"
       stroke-width="0.5"
       points="459,249 459,241"
       id="polyline4637" />
    <polyline
       fill="none"
       stroke="#000000"
       stroke-width="0.5"
       points="462,226 470,226"
       id="polyline4639" />
    <polyline
       fill="none"
       stroke="#000000"
       stroke-width="0.5"
       points="466,230 466,222"
       id="polyline4641" />
    <polyline
       fill="none"
       stroke="#000000"
       stroke-width="0.5"
       points="469,238 477,238"
       id="polyline4643" />
    <polyline
       fill="none"
       stroke="#000000"
       stroke-width="0.5"
       points="473,242 473,234"
       id="polyline4645" />
    <polyline
       fill="none"
       stroke="#000000"
       stroke-width="0.5"
       points="476,238 484,238"
       id="polyline4647" />
    <polyline
       fill="none"
       stroke="#000000"
       stroke-width="0.5"
       points="480,242 480,234"
       id="polyline4649" />
    <polyline
       fill="none"
       stroke="#000000"
       stroke-width="0.5"
       points="483,226 491,226"
       id="polyline4651" />
    <polyline
       fill="none"
       stroke="#000000"
       stroke-width="0.5"
       points="487,230 487,222"
       id="polyline4653" />
    <polyline
       fill="none"
       stroke="#000000"
       stroke-width="0.5"
       points="490,245 498,245"
       id="polyline4655" />
    <polyline
       fill="none"
       stroke="#000000"
       stroke-width="0.5"
       points="494,249 494,241"
       id="polyline4657" />
    <polyline
       fill="none"
       stroke="#000000"
       stroke-width="0.5"
       points="497,226 505,226"
       id="polyline4659" />
    <polyline
       fill="none"
       stroke="#000000"
       stroke-width="0.5"
       points="501,230 501,222"
       id="polyline4661" />
    <polyline
       fill="none"
       stroke="#000000"
       stroke-width="0.5"
       points="504,238 512,238"
       id="polyline4663" />
    <polyline
       fill="none"
       stroke="#000000"
       stroke-width="0.5"
       points="508,242 508,234"
       id="polyline4665" />
    <polyline
       fill="none"
       stroke="#00ff00"
       stroke-width="0.5"
       points="76.25,245 83.1875,92.9375 88.5625,402.563"
       id="polyline4667" />
    <polyline
       fill="none"
       stroke="#00ff00"
       stroke-width="0.5"
       points="91.375,402.563 96.25,57.5"
       id="polyline4669" />
    <polyline
       fill="none"
       stroke="#00ff00"
       stroke-width="0.5"
       points="98.125,57.5 104.063,397.125 111,245 117.938,92.9375 123.375,402.563"
       id="polyline4671" />
    <polyline
       fill="none"
       stroke="#00ff00"
       stroke-width="0.5"
       points="126.188,402.563 131.063,57.5"
       id="polyline4673" />
    <polyline
       fill="none"
       stroke="#00ff00"
       stroke-width="0.5"
       points="132.938,57.5 138.813,397.125 145.813,245 152.75,92.9375 158.188,402.563"
       id="polyline4675" />
    <polyline
       fill="none"
       stroke="#00ff00"
       stroke-width="0.5"
       points="160.938,402.563 165.813,57.5"
       id="polyline4677" />
    <polyline
       fill="none"
       stroke="#00ff00"
       stroke-width="0.5"
       points="167.688,57.5 173.625,397.125 180.563,245 187.563,92.9375 192.938,402.563"
       id="polyline4679" />
    <polyline
       fill="none"
       stroke="#00ff00"
       stroke-width="0.5"
       points="195.75,402.563 200.625,57.5"
       id="polyline4681" />
    <polyline
       fill="none"
       stroke="#00ff00"
       stroke-width="0.5"
       points="202.5,57.5 208.438,397.125 215.375,245 222.313,92.9375 227.75,402.563"
       id="polyline4683" />
    <polyline
       fill="none"
       stroke="#00ff00"
       stroke-width="0.5"
       points="230.563,402.563 235.438,57.5"
       id="polyline4685" />
    <polyline
       fill="none"
       stroke="#00ff00"
       stroke-width="0.5"
       points="237.25,57.5 243.188,397.125 250.188,245 257.125,92.9375 262.563,402.563"
       id="polyline4687" />
    <polyline
       fill="none"
       stroke="#00ff00"
       stroke-width="0.5"
       points="265.313,402.563 270.188,57.5"
       id="polyline4689" />
    <polyline
       fill="none"
       stroke="#00ff00"
       stroke-width="0.5"
       points="272.063,57.5 278,397.125 284.938,245 291.938,92.9375 297.313,402.563"
       id="polyline4691" />
    <polyline
       fill="none"
       stroke="#00ff00"
       stroke-width="0.5"
       points="300.125,402.563 305,57.5"
       id="polyline4693" />
    <polyline
       fill="none"
       stroke="#00ff00"
       stroke-width="0.5"
       points="306.875,57.5 312.813,397.125 319.75,245 326.688,92.9375 332.125,402.563"
       id="polyline4695" />
    <polyline
       fill="none"
       stroke="#00ff00"
       stroke-width="0.5"
       points="334.938,402.563 339.813,57.5"
       id="polyline4697" />
    <polyline
       fill="none"
       stroke="#00ff00"
       stroke-width="0.5"
       points="341.625,57.5 347.563,397.125 354.5,245 361.5,92.9375 366.875,402.563"
       id="polyline4699" />
    <polyline
       fill="none"
       stroke="#00ff00"
       stroke-width="0.5"
       points="369.688,402.563 374.563,57.5"
       id="polyline4701" />
    <polyline
       fill="none"
       stroke="#00ff00"
       stroke-width="0.5"
       points="376.438,57.5 382.375,397.125 389.313,245 396.25,92.9375 401.688,402.563"
       id="polyline4703" />
    <polyline
       fill="none"
       stroke="#00ff00"
       stroke-width="0.5"
       points="404.5,402.563 409.375,57.5"
       id="polyline4705" />
    <polyline
       fill="none"
       stroke="#00ff00"
       stroke-width="0.5"
       points="411.188,57.5 417.125,397.125 424.125,245 431.063,92.9375 436.5,402.563"
       id="polyline4707" />
    <polyline
       fill="none"
       stroke="#00ff00"
       stroke-width="0.5"
       points="439.25,402.563 444.125,57.5"
       id="polyline4709" />
    <polyline
       fill="none"
       stroke="#00ff00"
       stroke-width="0.5"
       points="446,57.5 451.938,397.125 458.875,245 465.875,92.9375 471.25,402.563"
       id="polyline4711" />
    <polyline
       fill="none"
       stroke="#00ff00"
       stroke-width="0.5"
       points="474.063,402.563 478.938,57.5"
       id="polyline4713" />
    <polyline
       fill="none"
       stroke="#00ff00"
       stroke-width="0.5"
       points="480.813,57.5 486.75,397.125 493.688,245 500.625,92.9375 506.063,402.563"
       id="polyline4715" />
    <polyline
       fill="none"
       stroke="#0000ff"
       stroke-width="0.5"
       points="76.25,245 83.1875,245 90.125,232.938 97.125,232.938 104.063,213.438 111,213.438 117.938,213.438 124.938,213.438 131.875,232.938 138.813,232.938 145.813,245 152.75,245 159.688,232.938 166.688,232.938 173.625,213.438 180.563,213.438 187.563,213.438 194.5,213.438 201.438,232.938 208.438,232.938 215.375,245 222.313,245 229.313,232.938 236.25,232.938 243.188,213.438 250.188,213.438 257.125,213.438 264.063,213.438 271.063,232.938 278,232.938 284.938,245 291.938,245 298.875,232.938 305.813,232.938 312.813,213.438 319.75,213.438 326.688,213.438 333.688,213.438 340.625,232.938 347.563,232.938 354.5,245 361.5,245 368.438,232.938 375.375,232.938 382.375,213.438 389.313,213.438 396.25,213.438 403.25,213.438 410.188,232.938 417.125,232.938 424.125,245 431.063,245 438,232.938 445,232.938 451.938,213.438 458.875,213.438 465.875,213.438 472.813,213.438 479.75,232.938 486.75,232.938 493.688,245 500.625,245 507.625,232.938"
       id="polyline4717" />
    <polyline
       fill="none"
       stroke="#ff0000"
       stroke-width="0.5"
       points="76.25,245 83.1875,237.438 90.125,242.125 97.125,242.125 104.063,237.438 111,245 117.938,237.438 124.938,242.125 131.875,242.125 138.813,237.438 145.813,245 152.75,237.438 159.688,242.125 166.688,242.125 173.625,237.438 180.563,245 187.563,237.438 194.5,242.125 201.438,242.125 208.438,237.438 215.375,245 222.313,237.438 229.313,242.125 236.25,242.125 243.188,237.438 250.188,245 257.125,237.438 264.063,242.125 271.063,242.125 278,237.438 284.938,245 291.938,237.438 298.875,242.125 305.813,242.125 312.813,237.438 319.75,245 326.688,237.438 333.688,242.125 340.625,242.125 347.563,237.438 354.5,245 361.5,237.438 368.438,242.125 375.375,242.125 382.375,237.438 389.313,245 396.25,237.438 403.25,242.125 410.188,242.125 417.125,237.438 424.125,245 431.063,237.438 438,242.125 445,242.125 451.938,237.438 458.875,245 465.875,237.438 472.813,242.125 479.75,242.125 486.75,237.438 493.688,245 500.625,237.438 507.625,242.125"
       id="polyline4719" />
    <polyline
       fill="none"
       stroke="#ff00ff"
       stroke-width="0.5"
       points="76.25,245 83.1875,245 90.125,239.688 97.125,248.313 104.063,239.688 111,245 117.938,245 124.938,239.688 131.875,248.313 138.813,239.688 145.813,245 152.75,245 159.688,239.688 166.688,248.313 173.625,239.688 180.563,245 187.563,245 194.5,239.688 201.438,248.313 208.438,239.688 215.375,245 222.313,245 229.313,239.688 236.25,248.313 243.188,239.688 250.188,245 257.125,245 264.063,239.688 271.063,248.313 278,239.688 284.938,245 291.938,245 298.875,239.688 305.813,248.313 312.813,239.688 319.75,245 326.688,245 333.688,239.688 340.625,248.313 347.563,239.688 354.5,245 361.5,245 368.438,239.688 375.375,248.313 382.375,239.688 389.313,245 396.25,245 403.25,239.688 410.188,248.313 417.125,239.688 424.125,245 431.063,245 438,239.688 445,248.313 451.938,239.688 458.875,245 465.875,245 472.813,239.688 479.75,248.313 486.75,239.688 493.688,245 500.625,245 507.625,239.688"
       id="polyline4721" />
    <polyline
       fill="none"
       stroke="#000000"
       stroke-width="0.5"
       points="76.25,402.5 76.25,57.5"
       id="polyline4723" />
    <polyline
       fill="none"
       stroke="#000000"
       stroke-width="0.5"
       points="76.25,400.25 69.375,400.25"
       id="polyline4725" />
    <polyline
       fill="none"
       stroke="#000000"
       stroke-width="0.5"
       points="76.25,348.5 69.375,348.5"
       id="polyline4727" />
    <polyline
       fill="none"
       stroke="#000000"
       stroke-width="0.5"
       points="76.25,296.75 69.375,296.75"
       id="polyline4729" />
    <polyline
       fill="none"
       stroke="#000000"
       stroke-width="0.5"
       points="76.25,245 69.375,245"
       id="polyline4731" />
    <polyline
       fill="none"
       stroke="#000000"
       stroke-width="0.5"
       points="76.25,193.25 69.375,193.25"
       id="polyline4733" />
    <polyline
       fill="none"
       stroke="#000000"
       stroke-width="0.5"
       points="76.25,141.5 69.375,141.5"
       id="polyline4735" />
    <polyline
       fill="none"
       stroke="#000000"
       stroke-width="0.5"
       points="76.25,89.75 69.375,89.75"
       id="polyline4737" />
    <polyline
       fill="none"
       stroke="#000000"
       stroke-width="0.5"
       points="76.25,374.375 72.125,374.375"
       id="polyline4739" />
    <polyline
       fill="none"
       stroke="#000000"
       stroke-width="0.5"
       points="76.25,322.625 72.125,322.625"
       id="polyline4741" />
    <polyline
       fill="none"
       stroke="#000000"
       stroke-width="0.5"
       points="76.25,270.875 72.125,270.875"
       id="polyline4743" />
    <polyline
       fill="none"
       stroke="#000000"
       stroke-width="0.5"
       points="76.25,219.125 72.125,219.125"
       id="polyline4745" />
    <polyline
       fill="none"
       stroke="#000000"
       stroke-width="0.5"
       points="76.25,167.375 72.125,167.375"
       id="polyline4747" />
    <polyline
       fill="none"
       stroke="#000000"
       stroke-width="0.5"
       points="76.25,115.625 72.125,115.625"
       id="polyline4749" />
    <polyline
       fill="none"
       stroke="#000000"
       stroke-width="0.5"
       points="76.25,63.875 72.125,63.875"
       id="polyline4751" />
    <text
       fill="#000000"
       style="stroke:none"
       x="49"
       y="405"
       transform="rotate(0, 49, 405)"
       font-size="10"
       font-family="SansSerif"
       font-style="normal"
       font-weight="normal"
       id="text4753">-0.6</text>
    <text
       fill="#000000"
       style="stroke:none"
       x="49"
       y="354"
       transform="rotate(0, 49, 354)"
       font-size="10"
       font-family="SansSerif"
       font-style="normal"
       font-weight="normal"
       id="text4755">-0.4</text>
    <text
       fill="#000000"
       style="stroke:none"
       x="49"
       y="302"
       transform="rotate(0, 49, 302)"
       font-size="10"
       font-family="SansSerif"
       font-style="normal"
       font-weight="normal"
       id="text4757">-0.2</text>
    <text
       fill="#000000"
       style="stroke:none"
       x="52"
       y="250"
       transform="rotate(0, 52, 250)"
       font-size="10"
       font-family="SansSerif"
       font-style="normal"
       font-weight="normal"
       id="text4759">0.0</text>
    <text
       fill="#000000"
       style="stroke:none"
       x="52"
       y="198"
       transform="rotate(0, 52, 198)"
       font-size="10"
       font-family="SansSerif"
       font-style="normal"
       font-weight="normal"
       id="text4761">0.2</text>
    <text
       fill="#000000"
       style="stroke:none"
       x="52"
       y="147"
       transform="rotate(0, 52, 147)"
       font-size="10"
       font-family="SansSerif"
       font-style="normal"
       font-weight="normal"
       id="text4763">0.4</text>
    <text
       fill="#000000"
       style="stroke:none"
       x="52"
       y="95"
       transform="rotate(0, 52, 95)"
       font-size="10"
       font-family="SansSerif"
       font-style="normal"
       font-weight="normal"
       id="text4765">0.6</text>
    <polyline
       fill="none"
       stroke="#000000"
       stroke-width="0.5"
       points="76.25,402.5 533.75,402.5"
       id="polyline4767" />
    <polyline
       fill="none"
       stroke="#000000"
       stroke-width="0.5"
       points="76.25,402.5 76.25,407.688"
       id="polyline4769" />
    <polyline
       fill="none"
       stroke="#000000"
       stroke-width="0.5"
       points="145.813,402.5 145.813,407.688"
       id="polyline4771" />
    <polyline
       fill="none"
       stroke="#000000"
       stroke-width="0.5"
       points="215.375,402.5 215.375,407.688"
       id="polyline4773" />
    <polyline
       fill="none"
       stroke="#000000"
       stroke-width="0.5"
       points="284.938,402.5 284.938,407.688"
       id="polyline4775" />
    <polyline
       fill="none"
       stroke="#000000"
       stroke-width="0.5"
       points="354.5,402.5 354.5,407.688"
       id="polyline4777" />
    <polyline
       fill="none"
       stroke="#000000"
       stroke-width="0.5"
       points="424.125,402.5 424.125,407.688"
       id="polyline4779" />
    <polyline
       fill="none"
       stroke="#000000"
       stroke-width="0.5"
       points="493.688,402.5 493.688,407.688"
       id="polyline4781" />
    <polyline
       fill="none"
       stroke="#000000"
       stroke-width="0.5"
       points="111,402.5 111,405.625"
       id="polyline4783" />
    <polyline
       fill="none"
       stroke="#000000"
       stroke-width="0.5"
       points="180.563,402.5 180.563,405.625"
       id="polyline4785" />
    <polyline
       fill="none"
       stroke="#000000"
       stroke-width="0.5"
       points="250.188,402.5 250.188,405.625"
       id="polyline4787" />
    <polyline
       fill="none"
       stroke="#000000"
       stroke-width="0.5"
       points="319.75,402.5 319.75,405.625"
       id="polyline4789" />
    <polyline
       fill="none"
       stroke="#000000"
       stroke-width="0.5"
       points="389.313,402.5 389.313,405.625"
       id="polyline4791" />
    <polyline
       fill="none"
       stroke="#000000"
       stroke-width="0.5"
       points="458.875,402.5 458.875,405.625"
       id="polyline4793" />
    <polyline
       fill="none"
       stroke="#000000"
       stroke-width="0.5"
       points="528.5,402.5 528.5,405.625"
       id="polyline4795" />
    <text
       fill="#000000"
       style="stroke:none"
       x="73"
       y="419"
       transform="rotate(0, 73, 419)"
       font-size="10"
       font-family="SansSerif"
       font-style="normal"
       font-weight="normal"
       id="text4797">0</text>
    <text
       fill="#000000"
       style="stroke:none"
       x="143"
       y="419"
       transform="rotate(0, 143, 419)"
       font-size="10"
       font-family="SansSerif"
       font-style="normal"
       font-weight="normal"
       id="text4799">1</text>
    <text
       fill="#000000"
       style="stroke:none"
       x="212"
       y="419"
       transform="rotate(0, 212, 419)"
       font-size="10"
       font-family="SansSerif"
       font-style="normal"
       font-weight="normal"
       id="text4801">2</text>
    <text
       fill="#000000"
       style="stroke:none"
       x="281"
       y="419"
       transform="rotate(0, 281, 419)"
       font-size="10"
       font-family="SansSerif"
       font-style="normal"
       font-weight="normal"
       id="text4803">3</text>
    <text
       fill="#000000"
       style="stroke:none"
       x="351"
       y="419"
       transform="rotate(0, 351, 419)"
       font-size="10"
       font-family="SansSerif"
       font-style="normal"
       font-weight="normal"
       id="text4805">4</text>
    <text
       fill="#000000"
       style="stroke:none"
       x="421"
       y="419"
       transform="rotate(0, 421, 419)"
       font-size="10"
       font-family="SansSerif"
       font-style="normal"
       font-weight="normal"
       id="text4807">5</text>
    <text
       fill="#000000"
       style="stroke:none"
       x="490"
       y="419"
       transform="rotate(0, 490, 419)"
       font-size="10"
       font-family="SansSerif"
       font-style="normal"
       font-weight="normal"
       id="text4809">6</text>
    <text
       fill="#000000"
       style="stroke:none"
       x="239"
       y="48"
       transform="rotate(0, 239, 48)"
       font-size="10"
       font-family="SansSerif"
       font-style="normal"
       font-weight="normal"
       id="text4811">Test integration methods</text>
  </g>
  <g
     transform="translate(116.93854,-102.59908)"
     style="stroke:none"
     id="g4837">
    <g
       id="g4817">
      <rect
         style="fill:#ffffff;stroke:#000000;stroke-width:0.84598196"
         id="rect3546"
         width="106.10033"
         height="60.626755"
         x="301.70621"
         y="180.46367" />
      <path
         style="fill:none;stroke:#00ff00;stroke-width:2;stroke-linecap:butt;stroke-linejoin:miter;stroke-opacity:1"
         d="m 308.23093,189.39406 23.9089,4.52331"
         id="path3548"
         inkscape:connector-curvature="0" />
      <path
         inkscape:connector-curvature="0"
         id="path3550"
         d="m 308.23093,198.74787 23.9089,4.52331"
         style="fill:none;stroke:#0000ff;stroke-width:2;stroke-linecap:butt;stroke-linejoin:miter;stroke-opacity:1" />
      <path
         style="fill:none;stroke:#ff0000;stroke-width:2;stroke-linecap:butt;stroke-linejoin:miter;stroke-opacity:1"
         d="m 308.23093,208.04025 23.9089,4.52331"
         id="path3552"
         inkscape:connector-curvature="0" />
      <path
         inkscape:connector-curvature="0"
         id="path3554"
         d="m 308.23093,216.68644 23.9089,4.52331"
         style="fill:none;stroke:#ff00ff;stroke-width:2;stroke-linecap:butt;stroke-linejoin:miter;stroke-opacity:1" />
      <text
         xml:space="preserve"
         style="font-size:9.80318928px;font-style:normal;font-weight:normal;line-height:125%;letter-spacing:0px;word-spacing:0px;fill:#008000;fill-opacity:1;stroke:none;font-family:Sans"
         x="342.55042"
         y="191.75229"
         id="text3556"
         sodipodi:linespacing="125%"
         transform="scale(0.98010005,1.020304)"><tspan
           sodipodi:role="line"
           id="tspan3558"
           x="342.55042"
           y="191.75229">Original signal</tspan></text>
      <text
         transform="scale(0.98010005,1.020304)"
         sodipodi:linespacing="125%"
         id="text3560"
         y="201.55331"
         x="342.55042"
         style="font-size:9.80318928px;font-style:normal;font-variant:normal;font-weight:normal;font-stretch:normal;text-align:start;line-height:125%;letter-spacing:0px;word-spacing:0px;writing-mode:lr-tb;text-anchor:start;fill:#000080;fill-opacity:1;stroke:none;font-family:Sans;-inkscape-font-specification:Sans"
         xml:space="preserve"><tspan
           sodipodi:role="line"
           id="tspan3586"
           x="342.55042"
           y="201.55331">Simpson's</tspan></text>
      <text
         xml:space="preserve"
         style="font-size:9.80318928px;font-style:normal;font-variant:normal;font-weight:normal;font-stretch:normal;text-align:start;line-height:125%;letter-spacing:0px;word-spacing:0px;writing-mode:lr-tb;text-anchor:start;fill:#800000;fill-opacity:1;stroke:none;font-family:Sans;-inkscape-font-specification:Sans"
         x="342.55042"
         y="211.35434"
         id="text3564"
         sodipodi:linespacing="125%"
         transform="scale(0.98010005,1.020304)"><tspan
           y="211.35434"
           x="342.55042"
           sodipodi:role="line"
           id="tspan3588">Trapezoid</tspan></text>
      <text
         transform="scale(0.98010005,1.020304)"
         sodipodi:linespacing="125%"
         id="text3568"
         y="221.15536"
         x="342.55042"
         style="font-size:9.80318928px;font-style:normal;font-variant:normal;font-weight:normal;font-stretch:normal;text-align:start;line-height:125%;letter-spacing:0px;word-spacing:0px;writing-mode:lr-tb;text-anchor:start;fill:#800080;fill-opacity:1;stroke:none;font-family:Sans;-inkscape-font-specification:Sans"
         xml:space="preserve"><tspan
           y="221.15536"
           x="342.55042"
           sodipodi:role="line"
           id="tspan3951">Leo Tick's</tspan></text>
      <g
         id="g3578"
         transform="matrix(0.55941834,0,0,0.55941834,399.9013,75.221977)">
        <path
           inkscape:connector-curvature="0"
           id="path3574"
           d="m -130,270 0,20"
           style="fill:none;stroke:#000000;stroke-width:2;stroke-linecap:butt;stroke-linejoin:miter;stroke-opacity:1" />
        <path
           inkscape:connector-curvature="0"
           id="path3576"
           d="m -140,280 c 20,0 20,0 20,0"
           style="fill:none;stroke:#000000;stroke-width:2;stroke-linecap:butt;stroke-linejoin:miter;stroke-opacity:1" />
      </g>
      <text
         xml:space="preserve"
         style="font-size:9.80318928px;font-style:normal;font-weight:normal;line-height:125%;letter-spacing:0px;word-spacing:0px;fill:#000000;fill-opacity:1;stroke:none;font-family:Sans"
         x="342.55042"
         y="230.95639"
         id="text3582"
         sodipodi:linespacing="125%"
         transform="scale(0.98010005,1.020304)"><tspan
           sodipodi:role="line"
           id="tspan3584"
           x="342.55042"
           y="230.95639">Real</tspan></text>
    </g>
  </g>
</svg>
